<?xml version="1.0" standalone="no"?>
<!DOCTYPE svg PUBLIC "-//W3C//DTD SVG 20010904//EN"
 "http://www.w3.org/TR/2001/REC-SVG-20010904/DTD/svg10.dtd">
<svg version="1.0" xmlns="http://www.w3.org/2000/svg"
 width="963.000000pt" height="964.000000pt" viewBox="0 0 963.000000 964.000000"
 preserveAspectRatio="xMidYMid meet">
<metadata>
Created by potrace 1.16, written by Peter Selinger 2001-2019
</metadata>
<g transform="translate(0.000000,964.000000) scale(0.100000,-0.100000)"
fill="#000000" stroke="none">
<path d="M200 4820 l0 -4620 4620 0 4620 0 0 4620 0 4620 -1575 0 -1575 -1
-13 -26 c-12 -21 -15 -23 -20 -9 -4 10 -3 15 3 11 6 -3 10 -2 10 4 0 19 -20
22 -27 5 -5 -14 -8 -15 -12 -3 -5 13 -9 12 -23 -3 -16 -16 -15 -17 13 -13 32
4 39 -9 12 -24 -14 -8 -15 -12 -4 -25 7 -9 18 -13 24 -9 6 3 7 1 3 -5 -4 -7
-13 -12 -19 -12 -7 0 -18 -9 -25 -20 -7 -11 -8 -20 -3 -20 5 0 11 7 15 15 3 8
10 15 16 15 7 0 4 -12 -6 -30 -12 -20 -20 -26 -25 -18 -5 7 -11 9 -16 5 -12
-13 20 -27 34 -15 9 7 13 7 13 -2 0 -10 4 -9 18 1 14 11 15 11 5 -1 -18 -19
-16 -35 1 -21 26 21 30 -9 5 -33 -12 -11 -17 -14 -11 -5 11 15 9 16 -19 15
-18 -1 -34 -7 -37 -14 -2 -7 2 -10 11 -6 22 8 32 -15 14 -33 -17 -17 -39 -10
-31 11 3 7 -3 19 -12 27 -16 12 -17 12 -11 -5 7 -17 5 -17 -9 -5 -14 12 -19
10 -40 -16 -28 -35 -23 -48 6 -14 l20 24 24 -27 c21 -24 29 -26 50 -18 20 7
24 6 20 -5 -3 -7 -12 -11 -20 -8 -8 3 -14 1 -14 -5 0 -6 6 -13 13 -15 7 -4 8
-6 1 -6 -6 -1 -17 6 -24 14 -10 12 -16 13 -26 4 -10 -8 -14 -8 -14 0 0 6 5 11
10 11 6 0 10 5 10 10 0 16 -19 11 -29 -8 -13 -24 2 -50 21 -35 9 8 16 7 25 -2
8 -9 9 -16 3 -20 -6 -3 -10 -1 -10 4 0 6 -4 11 -10 11 -5 0 -10 -8 -10 -17 0
-14 -5 -11 -18 9 -15 22 -21 25 -31 15 -10 -9 -11 -9 -6 4 4 10 0 19 -9 22
-11 4 -13 1 -9 -10 4 -11 3 -14 -6 -9 -6 4 -18 2 -26 -4 -23 -19 -18 1 6 26
l22 23 -27 7 c-14 3 -23 10 -20 16 3 5 12 7 19 4 7 -2 18 7 24 22 10 23 9 25
-2 10 -13 -16 -15 -16 -30 -1 -15 15 -16 15 -10 -5 3 -14 1 -22 -7 -22 -7 0
-9 -8 -5 -20 4 -11 2 -20 -4 -20 -6 0 -11 5 -11 12 0 6 -3 8 -6 5 -4 -4 -1
-13 6 -21 11 -14 14 -14 27 0 9 8 18 12 22 8 3 -4 0 -9 -7 -11 -15 -6 -46 -63
-38 -71 3 -3 6 0 6 6 0 18 17 14 24 -5 4 -9 0 -23 -8 -31 -12 -12 -15 -11 -21
8 -4 13 -12 19 -21 16 -8 -3 -14 -1 -14 4 0 6 -5 10 -11 10 -6 0 -9 -6 -6 -12
4 -12 -40 -58 -54 -58 -11 0 -19 29 -9 35 4 3 10 0 12 -7 3 -9 9 -8 22 5 9 9
15 21 12 26 -4 5 0 12 6 15 10 5 10 7 0 12 -10 5 -10 10 4 25 9 10 13 19 7 19
-5 0 -18 -9 -28 -20 -10 -11 -23 -20 -28 -20 -6 0 -2 9 8 20 17 18 17 20 2 14
-9 -3 -24 -21 -33 -39 -16 -35 -53 -52 -67 -32 -6 9 -7 8 -5 -3 3 -24 -13 -61
-24 -54 -6 4 -6 -1 1 -14 15 -28 14 -32 -4 -26 -8 4 -15 14 -16 23 0 11 -2 12
-6 3 -4 -10 -8 -10 -19 -1 -11 9 -14 9 -14 -1 0 -7 -7 -10 -15 -6 -9 3 -21 -5
-32 -22 -24 -36 -35 -47 -52 -47 -8 0 -17 -7 -19 -15 -5 -13 -3 -13 11 -1 14
11 17 11 17 0 0 -11 2 -11 10 1 5 8 12 11 16 7 4 -3 1 -13 -6 -22 -8 -10 -9
-15 -1 -15 6 0 11 5 11 11 0 6 7 4 15 -5 19 -18 20 -33 2 -17 -10 8 -17 7 -25
-1 -9 -9 -12 -9 -12 1 0 7 -5 9 -10 6 -6 -4 -8 -10 -5 -15 3 -5 -9 -18 -26
-30 -16 -12 -28 -28 -26 -34 3 -7 -1 -13 -9 -13 -16 0 -19 13 -4 22 6 3 10 11
10 17 0 6 -8 4 -17 -5 -20 -18 -31 -19 -55 -6 -11 6 -19 5 -24 -3 -4 -7 -3 -8
4 -4 7 4 12 3 12 -3 0 -19 -17 -20 -33 0 -9 10 -22 19 -28 19 -7 0 -4 -9 6
-20 17 -18 17 -20 2 -14 -10 3 -17 1 -17 -5 0 -6 5 -11 10 -11 6 0 10 -5 10
-11 0 -8 -5 -7 -15 1 -9 7 -13 21 -10 31 4 11 2 19 -4 19 -6 0 -11 -5 -11 -11
0 -5 -5 -7 -11 -3 -8 4 -7 9 2 15 11 7 11 9 1 9 -7 0 -10 5 -6 11 4 8 9 7 15
-2 8 -12 10 -12 18 0 6 10 10 10 16 1 6 -9 10 -9 16 1 7 11 9 11 9 1 0 -7 5
-10 12 -6 8 5 6 11 -6 19 -17 13 -13 45 6 45 6 0 8 -7 5 -15 -4 -8 -1 -17 5
-21 6 -4 8 -3 5 3 -4 6 3 19 14 29 19 17 20 17 13 0 -5 -14 -3 -17 7 -14 15 6
15 11 4 41 -4 10 -3 17 4 17 6 0 11 -8 11 -18 0 -19 43 -46 54 -35 11 11 6 22
-7 17 -8 -3 -19 1 -26 9 -9 11 -8 17 4 27 12 10 13 15 4 21 -9 5 -7 13 5 30 9
13 16 18 16 11 0 -7 5 -10 11 -6 8 4 6 10 -6 17 -17 9 -27 1 -38 -28 -2 -5
-13 1 -24 14 -13 17 -22 21 -27 13 -4 -7 -1 -12 9 -12 9 0 13 -4 10 -10 -3 -5
-1 -10 4 -10 6 0 11 -5 11 -11 0 -6 -10 -8 -22 -5 -13 3 -17 3 -10 0 6 -3 12
-10 12 -15 0 -15 -22 -10 -37 9 -13 15 -13 15 -4 -4 8 -17 6 -25 -9 -39 -11
-10 -20 -13 -20 -7 0 6 5 14 10 17 13 8 -6 35 -24 35 -6 0 -5 -4 3 -9 13 -8
13 -12 1 -26 -9 -10 -10 -19 -4 -23 13 -9 13 -53 -1 -48 -5 2 -9 9 -7 15 1 7
-2 20 -8 31 -7 13 -6 20 3 23 7 2 8 8 3 13 -5 5 -11 4 -13 -4 -3 -7 -11 -19
-19 -26 -20 -20 -17 -28 5 -21 16 5 19 1 18 -15 -2 -23 -2 -23 -28 -9 -15 7
-24 7 -34 -1 -7 -6 -15 -7 -17 -3 -3 4 -3 1 0 -7 14 -43 -14 -100 -40 -83 -6
3 -5 -4 2 -17 6 -12 17 -19 24 -17 7 3 19 1 27 -4 11 -7 11 -9 -3 -9 -12 0
-15 -5 -11 -17 7 -17 6 -17 -11 0 -20 20 -21 20 -46 7 -17 -9 -18 -8 -13 7 6
16 5 16 -10 4 -15 -12 -17 -12 -12 2 4 8 2 18 -4 21 -11 7 27 76 42 76 13 0 8
-16 -13 -38 -20 -21 -28 -48 -11 -38 5 3 12 -1 15 -10 4 -9 9 -14 13 -11 3 4
1 13 -6 20 -14 18 -4 48 14 41 7 -3 16 0 21 7 4 7 2 15 -4 17 -7 2 -12 8 -12
14 0 6 7 8 15 4 8 -3 15 -1 15 4 0 6 -5 10 -10 10 -6 0 -24 16 -41 35 -17 19
-36 35 -43 34 -7 0 -7 -2 2 -6 6 -2 12 -11 12 -19 0 -8 5 -14 10 -14 7 0 7 -7
0 -22 -11 -22 -11 -23 5 -3 13 17 17 18 25 6 10 -17 -25 -41 -47 -33 -16 5
-17 28 -3 37 13 8 -6 35 -23 35 -7 0 -7 -4 1 -12 8 -8 8 -17 0 -31 -7 -15 -7
-22 3 -28 8 -5 9 -9 3 -9 -6 0 -17 7 -24 15 -11 13 -10 18 6 30 17 13 17 14 2
15 -9 0 -19 6 -21 13 -3 6 -6 -5 -6 -25 -1 -21 3 -38 9 -38 5 0 7 -13 5 -30
-4 -36 11 -39 27 -5 11 25 28 34 28 15 0 -5 -4 -10 -8 -10 -5 0 -14 -12 -21
-26 -8 -18 -17 -24 -28 -20 -13 5 -14 4 -3 -9 10 -12 16 -13 26 -4 19 15 18 1
-1 -17 -11 -11 -15 -12 -15 -3 0 24 -14 -2 -16 -31 -2 -23 1 -28 14 -23 14 5
14 3 -1 -9 -17 -12 -18 -28 -15 -155 2 -85 -1 -138 -6 -133 -8 8 -11 45 -15
163 -1 11 -6 16 -13 12 -7 -4 -6 -1 2 7 11 10 15 36 16 105 l0 91 -31 15 c-39
18 -66 8 -45 -17 11 -14 10 -16 -4 -10 -9 3 -16 2 -16 -4 0 -14 34 -25 38 -13
2 6 8 9 13 5 5 -3 9 -1 9 5 0 5 -8 15 -17 20 -10 6 -13 10 -8 10 6 0 18 -6 29
-14 18 -13 18 -15 -4 -49 -12 -20 -24 -36 -27 -36 -3 0 2 11 11 25 22 34 3 32
-24 -2 -18 -23 -19 -24 -10 -5 10 21 9 26 -10 39 -16 11 -19 18 -10 23 7 4 1
8 -15 8 -16 0 -22 -4 -15 -8 9 -5 9 -9 1 -14 -14 -9 -15 -46 -1 -46 6 0 10 -5
10 -11 0 -5 -4 -8 -8 -5 -13 8 -13 -66 0 -81 9 -11 14 -11 26 -1 12 10 14 10
8 1 -4 -7 -3 -21 3 -30 13 -26 -9 -56 -27 -37 -6 7 -8 15 -3 19 5 3 11 0 13
-7 3 -9 6 -9 11 -1 7 12 -17 43 -34 43 -14 0 -11 -58 4 -63 9 -4 9 -6 0 -6
-10 -1 -13 -123 -13 -577 0 -458 3 -574 13 -567 6 4 22 7 34 8 12 0 25 3 29 8
10 9 27 9 20 -1 -2 -4 8 -7 22 -6 l27 1 0 444 c1 496 2 539 13 539 4 0 6 -223
4 -495 l-4 -495 61 0 61 0 2 138 c2 128 2 130 5 34 2 -56 7 -101 11 -98 4 2 5
-15 4 -38 l-4 -43 57 5 57 5 142 -140 c77 -76 168 -163 201 -193 33 -30 172
-162 308 -295 l249 -240 -6 -57 c-3 -32 -3 -177 1 -323 l6 -266 241 6 c322 7
359 9 371 16 9 5 24 5 93 1 15 -1 21 -6 16 -14 -6 -10 -4 -10 7 0 15 14 33 16
25 3 -3 -5 6 -8 19 -8 14 0 25 4 25 9 0 5 -4 6 -10 3 -5 -3 -10 -1 -10 5 0 7
7 9 16 6 9 -3 18 -6 20 -6 3 0 3 -3 1 -7 -3 -5 8 -9 24 -10 21 -2 28 1 22 10
-5 9 -4 9 8 0 18 -14 58 -14 78 1 11 8 13 8 7 -1 -4 -7 -3 -13 1 -13 5 0 15 6
22 13 11 10 12 9 6 -2 -6 -11 -3 -13 13 -9 12 4 22 2 22 -3 0 -5 -5 -9 -12 -9
-6 0 -9 -2 -6 -5 3 -3 43 -8 89 -10 115 -6 233 -16 236 -19 7 -6 -565 -16
-932 -16 l-392 0 -6 -322 -6 -323 -143 -140 c-137 -134 -423 -405 -498 -471
-19 -17 -81 -72 -138 -123 -56 -50 -108 -91 -115 -92 -6 0 -137 0 -289 1
l-278 2 0 -239 c0 -131 -5 -355 -12 -498 -16 -329 -23 -269 -33 285 -6 305
-11 401 -22 423 l-14 27 -278 0 c-273 0 -279 0 -307 22 -77 59 -538 486 -689
637 l-169 170 -4 320 -4 321 -572 0 c-496 0 -734 4 -744 14 -1 2 91 9 205 16
115 7 202 15 196 17 -7 3 -13 9 -13 14 0 5 10 5 23 0 12 -4 33 -5 47 -1 14 4
35 3 48 -1 26 -10 29 -2 5 18 -16 13 -16 13 4 4 12 -6 30 -8 40 -5 13 4 15 3
5 -4 -10 -6 0 -9 32 -8 25 1 48 5 52 9 4 3 16 2 27 -4 15 -9 18 -8 12 1 -6 10
-1 11 19 6 20 -5 26 -4 20 5 -5 8 -3 9 5 4 7 -4 31 -9 54 -10 23 -2 100 -8
171 -15 113 -10 174 -10 319 5 39 4 41 18 50 333 l9 307 46 55 c77 91 265 275
480 471 343 311 353 319 392 320 30 0 32 2 15 10 -15 7 -8 8 28 5 l47 -4 0 44
c0 24 4 44 9 44 4 0 7 -22 5 -50 l-2 -50 36 1 c33 1 35 2 12 9 -21 7 -17 8 21
9 45 1 47 3 53 34 3 17 4 235 3 484 -1 248 1 455 5 459 4 3 8 -215 8 -486 0
-271 3 -496 6 -501 3 -5 22 -9 42 -8 31 0 34 2 17 10 -15 7 -8 8 27 6 l47 -2
3 70 c3 80 1 1003 -3 1082 -2 28 -6 50 -10 48 -3 -3 -15 2 -25 10 -18 13 -18
14 4 8 12 -3 22 -1 23 3 0 5 2 17 4 27 2 10 -3 21 -11 24 -8 3 -14 9 -14 15 0
5 4 6 10 3 17 -10 11 7 -6 20 -15 10 -15 13 1 29 11 10 15 26 12 41 -2 14 -1
25 2 25 14 0 -2 75 -18 87 -20 15 -31 16 -31 2 0 -6 9 -13 20 -16 11 -3 20 -9
20 -14 0 -5 -8 -6 -17 -3 -16 5 -16 4 -3 -8 20 -18 27 -46 7 -30 -8 7 -17 9
-21 5 -4 -4 -4 1 0 12 7 18 6 18 -9 6 -15 -12 -17 -11 -17 3 0 9 8 16 18 16
16 1 16 1 -1 14 -14 11 -15 15 -4 24 7 6 24 9 38 6 22 -5 21 -4 -5 10 -27 15
-30 15 -42 -1 -7 -10 -11 -26 -8 -36 5 -16 3 -17 -14 -8 -23 12 -22 55 1 78
13 13 18 13 43 -2 17 -10 22 -11 12 -2 -23 18 -23 31 -1 23 10 -4 14 -3 9 1
-10 10 -56 11 -56 1 0 -4 -5 -8 -10 -8 -6 0 -10 6 -9 13 1 6 -1 20 -6 30 -6
14 -10 16 -16 6 -6 -10 -13 -9 -31 6 l-23 20 19 -23 c11 -12 26 -20 34 -17 10
4 12 0 8 -11 -3 -8 -6 -20 -6 -25 0 -5 -5 -9 -11 -9 -6 0 -9 6 -6 14 3 8 0 17
-7 19 -8 3 -12 -3 -11 -16 1 -12 9 -23 18 -25 9 -2 17 -8 17 -14 0 -5 -7 -8
-15 -4 -11 4 -15 -1 -14 -17 0 -12 3 -16 6 -9 8 20 25 13 18 -8 -5 -14 -2 -20
10 -20 15 0 15 -1 1 -16 -9 -8 -16 -20 -16 -25 0 -6 -4 -8 -9 -5 -5 4 -8 -9
-7 -29 2 -21 -1 -35 -8 -35 -6 0 -5 -4 3 -9 8 -5 10 -14 6 -21 -4 -7 -2 -16 6
-21 12 -7 12 -9 0 -9 -11 0 -11 -3 -1 -15 8 -9 8 -15 2 -15 -7 0 -8 -10 -2
-30 5 -18 5 -30 -1 -30 -10 0 -10 2 -14 45 -2 17 -4 30 -5 30 -1 0 -2 26 -3
58 -1 43 -5 57 -17 58 -10 0 -11 2 -2 6 6 2 10 9 6 14 -3 5 -1 9 4 9 25 0 -5
44 -40 60 -23 10 -34 20 -26 22 7 3 10 9 6 13 -9 10 -28 -3 -28 -21 0 -8 8
-14 18 -14 22 0 62 -27 62 -43 0 -8 -3 -9 -8 -1 -6 9 -64 34 -78 34 -2 0 1
-11 6 -24 5 -13 7 -26 5 -28 -4 -4 -7 -16 -14 -58 -1 -3 -5 2 -11 10 -5 8 -5
17 0 20 5 3 5 12 -1 20 -8 13 -10 13 -20 0 -9 -13 -10 -12 -5 3 5 15 2 17 -13
12 -11 -3 -22 -2 -25 3 -3 5 9 8 27 7 26 -2 33 1 34 16 1 10 -2 19 -8 19 -5 0
-9 -4 -9 -8 0 -4 -9 -8 -19 -8 -11 0 -17 4 -15 8 9 14 -7 9 -23 -7 -14 -14
-13 -18 3 -37 19 -20 19 -21 -3 -14 -16 5 -23 2 -28 -13 -3 -10 -12 -22 -20
-25 -9 -3 -12 0 -8 10 3 7 10 14 15 14 6 0 5 6 -2 15 -9 11 -10 18 -1 29 8 10
8 16 -2 25 -8 6 -16 8 -19 5 -8 -7 -78 28 -78 39 0 5 8 6 17 3 16 -6 16 -6 0
12 -21 23 -22 32 -2 32 8 0 15 -5 15 -12 0 -6 3 -8 6 -5 4 4 1 13 -6 22 -7 8
-8 15 -2 15 5 0 13 7 16 16 3 9 2 12 -5 9 -5 -4 -18 -1 -27 7 -15 12 -16 11
-3 -5 12 -15 11 -20 -5 -40 -10 -12 -20 -24 -21 -26 -2 -2 -14 2 -28 9 -27 14
-35 36 -10 26 17 -6 20 9 4 20 -6 3 -15 1 -19 -6 -4 -7 -13 -10 -19 -6 -7 5
-9 1 -5 -8 9 -23 -9 -19 -26 5 -31 44 -60 64 -60 40 0 -5 -9 -7 -20 -4 -25 7
-20 29 5 25 15 -3 14 0 -4 19 -11 12 -24 19 -28 16 -3 -4 -1 -7 5 -7 7 0 12
-5 12 -11 0 -6 -9 -8 -22 -4 -16 4 -19 4 -9 -3 7 -5 10 -15 6 -22 -5 -8 -18 0
-42 24 -30 30 -34 38 -23 51 11 13 10 15 -1 10 -20 -8 -20 36 0 53 9 8 11 11
4 8 -6 -4 -14 0 -16 6 -4 10 -6 10 -6 0 -1 -16 -31 -48 -31 -33 0 6 -5 11 -11
11 -8 0 -8 -4 1 -15 6 -8 9 -18 6 -23 -3 -6 0 -15 8 -21 11 -9 15 -9 19 1 3 7
6 3 6 -9 1 -13 6 -23 12 -23 5 0 7 -5 3 -12 -5 -7 -15 -2 -30 17 -13 16 -26
26 -30 22 -5 -4 0 -15 9 -24 16 -16 15 -18 -5 -40 -12 -13 -18 -26 -15 -30 4
-3 14 2 22 13 13 17 14 17 15 2 0 -22 20 -34 30 -18 6 11 12 10 25 -4 13 -12
21 -14 30 -6 9 7 15 7 19 1 4 -5 -2 -14 -11 -20 -17 -10 -17 -10 0 -11 9 0 17
5 17 11 0 8 5 7 16 -2 14 -12 14 -14 -3 -20 -27 -10 -86 2 -100 20 -6 9 -15
12 -19 8 -5 -4 -2 -12 5 -17 12 -7 12 -11 -2 -25 -15 -15 -20 -12 -62 31 -25
26 -45 51 -45 56 0 4 -6 8 -13 8 -7 0 -26 16 -42 35 -29 33 -45 43 -45 28 0
-5 16 -25 36 -45 19 -21 32 -38 27 -38 -4 0 -28 21 -53 48 -25 26 -41 44 -36
40 5 -4 15 -3 23 3 14 12 43 -11 146 -116 26 -26 50 -45 54 -41 4 4 -23 36
-61 72 -37 35 -64 64 -59 64 5 0 15 -6 21 -12 10 -10 14 -10 21 0 5 8 15 10
27 5 17 -6 17 -5 5 10 -15 19 -41 23 -41 5 0 -6 -3 -9 -6 -6 -7 7 18 48 28 48
5 0 8 -7 8 -15 0 -8 7 -15 15 -15 8 0 15 5 15 10 0 6 -5 10 -11 10 -6 0 -9 7
-6 14 4 10 1 13 -9 9 -20 -7 -18 7 4 23 16 13 16 14 -2 7 -11 -4 -17 -2 -13 3
3 5 -3 10 -14 10 -19 0 -19 -1 -3 -13 17 -12 17 -13 -2 -13 -11 0 -25 5 -31
11 -14 14 -33 3 -33 -17 0 -8 -4 -13 -9 -10 -5 4 -11 1 -13 -5 -2 -7 -10 -10
-18 -7 -10 3 -2 16 26 43 41 40 31 38 -23 -4 -24 -19 -31 -31 -27 -46 5 -15 1
-14 -19 9 -17 20 -27 25 -32 16 -6 -9 -9 -9 -16 1 -6 10 -12 9 -29 -6 -18 -16
-20 -16 -14 -2 3 9 11 17 16 17 7 0 6 5 -1 14 -6 7 -9 21 -5 30 7 18 24 22 24
5 0 -5 5 -7 10 -4 6 3 10 1 10 -4 0 -23 19 -10 29 20 11 32 1 72 -13 50 -4 -6
-14 -11 -22 -11 -12 0 -12 4 2 25 9 14 14 28 10 32 -3 3 -6 0 -6 -7 0 -11 -3
-11 -12 -2 -10 10 -10 15 2 22 20 13 35 7 34 -13 -1 -9 2 -14 7 -11 15 9 10
22 -18 48 -28 26 -45 28 -24 2 9 -11 8 -15 -5 -20 -12 -5 -14 -13 -9 -33 5
-23 4 -25 -9 -14 -22 19 -19 1 4 -28 17 -19 23 -21 35 -11 9 7 19 9 23 5 4 -4
2 -10 -5 -12 -7 -2 -9 -11 -6 -19 3 -8 0 -14 -6 -14 -6 0 -11 5 -11 11 0 5 -4
8 -9 4 -5 -3 -16 4 -25 16 -8 12 -19 18 -24 15 -12 -7 -36 20 -28 32 3 5 -4
16 -14 25 -11 9 -22 12 -25 7 -4 -6 -12 -10 -18 -10 -7 0 -4 5 6 11 9 5 17 16
17 24 0 8 5 17 12 21 7 5 9 1 6 -12 -5 -19 3 -31 29 -47 9 -6 11 -3 7 7 -3 9
-10 16 -16 16 -5 0 -8 6 -6 13 1 6 -6 26 -15 44 -21 39 -22 49 -2 33 10 -9 15
-9 15 -1 0 6 -5 11 -11 11 -6 0 -9 6 -6 14 3 8 -1 22 -9 33 -13 17 -14 16 -8
-12 7 -29 7 -30 -13 -12 -11 9 -23 17 -28 17 -5 0 -2 -6 7 -12 8 -7 18 -24 21
-38 6 -24 5 -24 -8 -6 -8 11 -15 24 -15 29 0 5 -7 7 -15 3 -8 -3 -19 3 -25 12
-8 14 -11 15 -19 3 -7 -11 -16 -6 -41 23 l-32 36 -1524 0 -1524 0 0 -4620z
m3044 4595 c3 -8 12 -15 21 -15 8 0 15 -4 15 -10 0 -17 -15 -11 -40 15 -13 14
-19 25 -13 25 6 0 13 -7 17 -15z m3067 1 c9 5 13 -9 10 -35 -2 -8 2 -10 11 -5
9 5 8 2 -2 -11 -14 -17 -13 -18 3 -12 11 4 16 3 12 -3 -3 -5 -19 -8 -35 -6
-20 2 -27 -1 -23 -10 2 -7 11 -10 18 -8 21 9 28 -15 11 -41 -18 -28 -20 -39
-6 -30 6 3 10 2 10 -4 0 -17 -18 -21 -24 -5 -3 9 1 25 9 37 17 24 19 37 7 37
-5 0 -13 -10 -19 -22 -6 -15 -12 -18 -17 -10 -4 7 -2 12 3 12 6 0 11 6 11 13
-1 6 -9 2 -19 -10 -23 -28 -35 -30 -22 -4 6 10 8 21 6 25 -3 3 -2 4 2 1 3 -3
12 7 20 21 16 32 16 37 1 27 -7 -4 -21 -9 -32 -10 -16 -3 -17 -1 -5 13 9 11
14 13 17 4 4 -10 6 -10 12 0 10 16 33 2 26 -16 -3 -8 -1 -14 4 -14 15 0 12 26
-4 40 -8 6 -12 19 -9 28 4 10 8 12 11 4 2 -7 8 -10 13 -6z m89 -16 c-6 -11
-13 -20 -16 -20 -2 0 0 9 6 20 6 11 13 20 16 20 2 0 0 -9 -6 -20z m-3195 -40
c4 0 0 10 -11 21 -19 22 -19 22 4 8 12 -8 20 -19 18 -26 -3 -6 4 -19 15 -29
10 -9 19 -22 19 -28 0 -6 -7 0 -16 12 -8 12 -21 22 -27 23 -7 0 -23 14 -36 32
l-25 32 25 -22 c14 -13 29 -23 34 -23z m36 27 c9 -7 14 -17 12 -22 -2 -6 11
-19 28 -29 17 -10 28 -20 25 -23 -2 -3 -21 6 -40 19 -20 14 -33 28 -28 32 4 4
-2 14 -12 22 -11 8 -16 14 -10 14 5 0 16 -6 25 -13z m-75 -39 l29 -33 -32 29
c-31 28 -38 36 -30 36 2 0 16 -15 33 -32z m144 7 c19 -23 8 -26 -20 -5 -19 15
-21 20 -9 20 9 0 22 -7 29 -15z m42 -25 c17 -38 15 -70 -3 -70 -5 0 -7 11 -3
25 4 15 2 25 -5 25 -6 0 -11 -8 -12 -17 0 -12 -2 -13 -6 -5 -3 7 1 19 8 28 9
11 9 18 1 26 -14 14 -16 28 -4 28 4 0 15 -18 24 -40z m38 -18 c0 -9 7 -11 22
-6 20 6 21 5 9 -10 -11 -13 -17 -14 -30 -4 -9 7 -17 12 -18 13 -1 0 -4 14 -8
30 -6 29 -6 29 9 11 9 -11 16 -26 16 -34z m2953 -27 c-3 -9 -8 -14 -10 -11 -3
3 -2 9 2 15 9 16 15 13 8 -4z m-3077 -56 c-12 -18 -16 -19 -16 -7 0 9 6 19 13
22 10 5 10 7 0 12 -7 3 -13 11 -13 17 0 6 7 4 16 -5 15 -15 15 -18 0 -39z
m128 35 c3 -8 2 -12 -4 -9 -6 3 -10 10 -10 16 0 14 7 11 14 -7z m-156 -29 c-3
-3 -9 2 -12 12 -6 14 -5 15 5 6 7 -7 10 -15 7 -18z m97 15 c3 -5 1 -10 -4 -10
-6 0 -11 5 -11 10 0 6 2 10 4 10 3 0 8 -4 11 -10z m-19 -22 c4 -7 4 -10 -1 -6
-4 4 -16 -2 -26 -14 -11 -11 -19 -17 -19 -13 0 8 30 45 36 45 2 0 6 -6 10 -12z
m69 -18 c-3 -5 -11 -10 -16 -10 -6 0 -7 5 -4 10 3 6 11 10 16 10 6 0 7 -4 4
-10z m33 -10 c-13 -20 -28 -27 -28 -12 0 10 22 32 32 32 5 0 3 -9 -4 -20z
m-49 -19 c36 -29 38 -29 51 -10 20 26 26 24 41 -13 7 -18 15 -37 17 -43 2 -5
-3 -1 -11 10 -15 19 -15 19 -36 -5 -11 -14 -20 -20 -21 -14 0 5 5 15 12 22 6
6 9 15 5 19 -4 3 -14 -2 -21 -13 -8 -10 -18 -16 -22 -11 -4 4 -2 7 4 7 9 0 9
5 0 19 -7 11 -16 17 -20 15 -5 -3 -5 -10 -2 -16 4 -7 2 -8 -5 -4 -6 4 -9 12
-6 17 6 9 -17 39 -29 39 -12 0 -6 -28 7 -33 9 -4 9 -6 0 -6 -16 -1 -26 17 -19
34 8 21 13 19 55 -14z m-103 -3 c10 -12 13 -18 5 -13 -8 4 -17 2 -23 -6 -7
-11 -8 -9 -4 5 4 11 1 23 -6 28 -8 4 -8 8 -2 8 6 0 19 -10 30 -22z m3129 -10
c5 -4 0 -6 -12 -6 -13 1 -19 7 -16 15 3 8 8 10 12 6 3 -4 10 -11 16 -15z m96
-1 c-10 -9 -11 -8 -5 6 3 10 9 15 12 12 3 -3 0 -11 -7 -18z m-176 -5 c-2 -3 0
-13 6 -23 8 -15 6 -17 -6 -13 -9 4 -13 9 -11 12 3 3 -1 10 -10 16 -13 10 -13
12 5 12 11 0 18 -2 16 -4z m-2815 -12 c0 -5 -4 -10 -10 -10 -5 0 -10 5 -10 10
0 6 5 10 10 10 6 0 10 -4 10 -10z m-150 -30 c0 -6 -9 -2 -20 7 -11 10 -20 19
-20 21 0 1 9 -2 20 -8 11 -6 20 -15 20 -20z m2940 -3 c0 -4 -6 -2 -14 5 -8 7
-12 17 -9 22 5 8 23 -12 23 -27z m-2830 -17 c0 -5 -4 -10 -10 -10 -5 0 -10 5
-10 10 0 6 5 10 10 10 6 0 10 -4 10 -10z m-110 -10 c8 -5 11 -10 5 -10 -5 0
-17 5 -25 10 -8 5 -10 10 -5 10 6 0 17 -5 25 -10z m2935 0 c3 -6 -1 -7 -9 -4
-18 7 -21 14 -7 14 6 0 13 -4 16 -10z m-2830 -25 c30 -31 34 -46 4 -19 -15 14
-22 15 -28 6 -6 -10 -11 -9 -21 3 -11 13 -10 14 5 8 14 -5 17 -3 12 10 -9 23
-2 21 28 -8z m239 4 c-6 -11 -24 -2 -24 11 0 5 7 7 15 4 8 -4 12 -10 9 -15z
m2256 11 c0 -5 -7 -10 -15 -10 -8 0 -22 -11 -31 -24 -15 -23 -14 -27 7 -55 13
-17 25 -31 28 -31 2 0 15 10 27 21 l23 22 25 -24 c14 -13 26 -28 26 -33 0 -5
-11 3 -26 19 -24 26 -26 26 -44 10 -11 -10 -17 -21 -15 -25 2 -4 -5 -16 -18
-26 -19 -16 -20 -17 -8 -1 22 28 4 33 -24 7 -14 -13 -25 -18 -25 -12 0 7 -7
12 -15 12 -8 0 -15 -4 -15 -10 0 -5 5 -10 12 -10 6 0 3 -9 -7 -20 -10 -11 -21
-18 -24 -15 -3 4 1 10 9 15 8 5 11 12 7 16 -3 4 -13 1 -22 -6 -8 -7 -15 -8
-15 -3 0 5 9 15 20 23 11 8 20 21 20 28 0 12 -3 12 -17 1 -15 -12 -16 -12 -10
3 3 9 1 18 -5 20 -8 3 -7 12 2 28 16 30 31 41 47 35 7 -2 15 5 18 16 9 26 65
51 65 29z m130 0 c0 -5 -5 -10 -11 -10 -5 0 -7 5 -4 10 3 6 8 10 11 10 2 0 4
-4 4 -10z m153 -10 c-10 -11 -19 -20 -21 -20 -1 0 2 9 8 20 6 11 15 20 20 20
6 0 2 -9 -7 -20z m-2883 -14 c0 -2 -9 -2 -20 1 -11 3 -20 9 -20 15 0 5 9 4 20
-2 11 -6 20 -12 20 -14z m2750 9 c-7 -8 -17 -15 -22 -15 -11 0 14 29 26 30 5
0 3 -7 -4 -15z m40 5 c0 -5 -2 -10 -4 -10 -3 0 -8 5 -11 10 -3 6 -1 10 4 10 6
0 11 -4 11 -10z m-2410 -10 c0 -5 -4 -10 -10 -10 -5 0 -10 5 -10 10 0 6 5 10
10 10 6 0 10 -4 10 -10z m-43 -8 c8 -5 8 -12 -3 -26 -7 -11 -17 -16 -21 -11
-5 4 -2 10 5 12 6 3 12 9 12 15 0 6 -6 5 -15 -2 -9 -7 -19 -10 -22 -6 -4 4 -1
11 7 16 18 12 22 12 37 2z m143 -2 c0 -5 -4 -10 -10 -10 -5 0 -10 5 -10 10 0
6 5 10 10 10 6 0 10 -4 10 -10z m2110 0 c0 -5 -4 -10 -10 -10 -5 0 -10 5 -10
10 0 6 5 10 10 10 6 0 10 -4 10 -10z m-2375 -10 c3 -6 -1 -7 -9 -4 -18 7 -21
14 -7 14 6 0 13 -4 16 -10z m2600 0 c3 -6 -1 -7 -9 -4 -18 7 -21 14 -7 14 6 0
13 -4 16 -10z m-2700 -29 c-6 -5 -25 10 -25 20 0 5 6 4 14 -3 8 -7 12 -15 11
-17z m75 14 c17 -9 30 -21 30 -28 0 -8 -3 -9 -8 -1 -4 6 -18 17 -31 24 -19 10
-25 10 -32 -1 -5 -8 -9 -9 -9 -3 0 10 10 24 17 24 2 0 17 -7 33 -15z m2470 5
c0 -5 -4 -10 -10 -10 -5 0 -10 5 -10 10 0 6 5 10 10 10 6 0 10 -4 10 -10z
m-48 -30 c-23 -22 -32 -25 -32 -12 0 5 10 14 23 20 32 15 33 14 9 -8z m-2537
-29 c-6 -5 -25 10 -25 20 0 5 6 4 14 -3 8 -7 12 -15 11 -17z m105 -25 c0 -6
-6 -4 -13 5 -7 10 -25 15 -44 14 -18 -1 -30 2 -27 7 3 5 14 6 25 3 12 -4 19
-2 19 6 0 8 7 5 20 -6 11 -10 20 -23 20 -29z m30 30 c0 -3 -4 -8 -10 -11 -5
-3 -10 -1 -10 4 0 6 5 11 10 11 6 0 10 -2 10 -4z m2555 -14 c-3 -3 -11 0 -18
7 -9 10 -8 11 6 5 10 -3 15 -9 12 -12z m-2455 -54 c0 -4 -13 4 -30 19 -16 14
-30 30 -30 35 0 4 14 -4 30 -19 17 -14 30 -30 30 -35z m173 50 c4 -10 8 -10
15 0 8 11 14 9 31 -9 25 -27 19 -40 -7 -16 -14 13 -21 14 -31 4 -9 -9 -14 -9
-21 3 -5 8 -10 18 -10 23 0 12 18 8 23 -5z m1882 -10 l-6 -23 20 23 c17 20 23
22 43 11 31 -16 39 -31 26 -47 -8 -10 -5 -19 15 -40 15 -16 27 -31 27 -35 0
-3 -11 -18 -25 -33 -14 -15 -25 -22 -25 -15 0 6 6 14 14 17 27 10 25 33 -5 65
-22 24 -27 34 -17 40 7 4 9 11 5 15 -4 4 -21 -7 -38 -24 -17 -18 -27 -32 -22
-32 5 0 15 6 21 12 10 10 18 6 37 -16 29 -34 29 -33 13 -42 -7 -4 -8 -3 -4 4
4 7 3 12 -3 12 -5 0 -13 -5 -17 -11 -5 -8 -9 -8 -14 1 -4 7 -13 9 -20 5 -9 -6
-9 -9 1 -16 10 -6 10 -9 2 -9 -17 0 -25 17 -12 26 6 3 7 9 3 13 -5 3 -19 18
-32 33 -23 25 -23 27 -8 57 19 36 30 41 21 9z m-2155 -23 c11 -13 10 -14 -4
-9 -9 3 -16 10 -16 15 0 13 6 11 20 -6z m391 5 c4 0 6 -7 3 -15 -4 -8 -2 -15
4 -15 5 0 12 -7 16 -15 8 -22 4 -19 -35 22 -22 23 -27 34 -16 30 10 -4 23 -7
28 -7z m79 -44 l25 -29 -30 7 c-28 6 -29 5 -11 -9 17 -13 17 -15 4 -15 -25 0
-33 21 -15 35 20 14 12 26 -11 18 -9 -4 -13 -2 -9 4 4 6 2 13 -5 15 -6 2 -8
10 -4 16 8 13 6 14 56 -42z m-330 34 c0 -5 -5 -10 -11 -10 -5 0 -7 5 -4 10 3
6 8 10 11 10 2 0 4 -4 4 -10z m1880 0 c0 -5 -4 -10 -10 -10 -5 0 -10 5 -10 10
0 6 5 10 10 10 6 0 10 -4 10 -10z m384 -5 c-8 -19 -1 -19 39 1 l32 17 -19 -21
c-10 -12 -22 -19 -27 -17 -4 3 -17 -7 -28 -21 -12 -15 -21 -22 -21 -16 0 6 5
14 11 17 6 4 8 14 5 22 -3 8 -4 19 0 24 9 14 14 10 8 -6z m-2509 -15 c3 -6 -1
-7 -9 -4 -18 7 -21 14 -7 14 6 0 13 -4 16 -10z m182 -1 c8 -8 7 -16 -5 -28
-13 -13 -20 -14 -29 -5 -18 17 -16 29 1 15 11 -9 16 -9 21 0 4 6 1 15 -6 20
-8 5 -9 9 -3 9 5 0 15 -5 21 -11z m47 -15 c3 -8 2 -12 -4 -9 -6 3 -10 10 -10
16 0 14 7 11 14 -7z m1827 -7 c-10 -9 -11 -8 -5 6 3 10 9 15 12 12 3 -3 0 -11
-7 -18z m414 -7 c-10 -11 -20 -18 -22 -16 -6 5 30 44 36 39 2 -1 -4 -12 -14
-23z m-1837 2 c17 -11 4 -45 -15 -38 -8 3 -19 6 -24 6 -6 0 -8 4 -4 10 3 5 11
8 18 6 7 -1 9 -1 5 1 -5 3 -8 9 -8 14 0 11 11 11 28 1z m462 -2 c0 -5 -5 -10
-11 -10 -5 0 -7 5 -4 10 3 6 8 10 11 10 2 0 4 -4 4 -10z m1314 -40 c-5 -5 -10
3 -11 18 -1 22 0 24 9 8 6 -10 6 -22 2 -26z m-2139 19 c11 -16 1 -19 -13 -3
-7 8 -8 14 -3 14 5 0 13 -5 16 -11z m128 -3 c4 -10 1 -13 -9 -9 -7 3 -14 9
-14 14 0 14 17 10 23 -5z m47 -8 c0 -6 -6 -5 -15 2 -8 7 -15 14 -15 16 0 2 7
1 15 -2 8 -4 15 -11 15 -16z m40 18 c0 -3 -4 -8 -10 -11 -5 -3 -10 -1 -10 4 0
6 5 11 10 11 6 0 10 -2 10 -4z m30 -4 c0 -5 12 -14 26 -21 17 -7 24 -17 20
-26 -17 -43 -17 -49 2 -25 12 14 23 22 26 19 3 -3 -4 -15 -17 -27 -15 -14 -27
-18 -37 -12 -12 7 -11 12 4 29 11 12 14 21 8 21 -6 0 -16 -9 -22 -21 -9 -17
-8 -25 6 -40 13 -14 14 -18 3 -14 -8 3 -22 17 -32 30 -14 20 -15 24 -2 19 22
-9 18 6 -7 29 l-23 19 23 -6 c13 -5 22 -3 22 3 0 6 -4 11 -10 11 -5 0 -10 5
-10 10 0 6 5 10 10 10 6 0 10 -4 10 -8z m171 -16 c-9 -11 -9 -15 1 -19 10 -3
9 -9 -4 -23 -10 -10 -21 -14 -25 -10 -5 5 -3 11 4 13 13 5 6 33 -8 33 -4 0 -6
-7 -3 -15 4 -9 0 -15 -10 -15 -13 0 -14 4 -4 25 6 14 17 24 24 21 8 -3 16 -1
20 5 3 6 8 8 11 5 3 -3 1 -12 -6 -20z m1884 -5 c-6 -5 -25 10 -25 20 0 5 6 4
14 -3 8 -7 12 -15 11 -17z m-104 -4 c-10 -9 -11 -8 -5 6 3 10 9 15 12 12 3 -3
0 -11 -7 -18z m-2016 -14 c14 1 19 -4 18 -18 -1 -11 4 -23 10 -27 9 -6 9 -8 0
-8 -6 0 -18 7 -27 15 -9 9 -17 11 -21 5 -3 -5 -12 -10 -18 -10 -7 0 -4 5 6 11
9 6 15 15 12 20 -4 5 -11 7 -16 4 -5 -3 -6 1 -2 10 3 10 8 12 12 7 3 -6 15
-10 26 -9z m161 0 c-3 -7 -1 -13 4 -13 5 0 18 -10 29 -22 17 -17 23 -19 35 -9
12 10 20 10 38 -3 26 -19 38 -20 38 -5 0 5 -4 8 -9 5 -4 -3 -16 3 -26 14 -10
11 -13 20 -7 20 6 0 14 -5 17 -10 4 -6 11 -8 16 -5 5 4 9 1 9 -5 0 -7 7 -9 17
-6 15 6 14 4 -2 -14 -10 -11 -25 -18 -32 -16 -7 3 -15 1 -18 -4 -9 -15 37 -23
47 -9 7 11 8 9 4 -4 -3 -10 -6 -23 -6 -28 0 -4 -7 -5 -17 -2 -11 4 -14 3 -9
-5 4 -7 2 -12 -4 -12 -7 0 -9 8 -5 20 8 24 -1 26 -22 4 -14 -13 -14 -17 -2
-26 12 -8 12 -9 0 -6 -20 6 -24 23 -9 39 12 12 13 23 9 52 0 4 -10 3 -20 -3
-23 -12 -66 9 -94 46 -16 22 -16 23 3 21 12 -1 18 -7 16 -14z m-351 -2 c-3 -6
3 -14 12 -20 10 -5 14 -13 10 -17 -9 -9 -37 27 -31 38 3 5 7 8 10 8 3 0 3 -4
-1 -9z m1941 -6 c-11 -8 -17 -18 -13 -21 4 -4 13 -2 21 5 11 9 15 9 18 -1 4
-10 9 -10 24 2 18 14 18 14 5 -3 -8 -11 -21 -15 -32 -12 -11 4 -19 2 -19 -3 0
-14 -43 -9 -47 5 -2 6 8 19 24 27 35 19 44 20 19 1z m-264 -22 c-2 -11 4 -23
13 -26 19 -8 20 -27 0 -27 -8 0 -15 -4 -15 -10 0 -5 -4 -10 -10 -10 -5 0 -7 8
-3 18 6 16 5 16 -14 0 -11 -10 -24 -18 -29 -18 -5 1 1 9 14 20 13 10 31 17 40
14 15 -5 15 -4 1 8 -17 14 -21 60 -4 55 5 -2 9 -13 7 -24z m548 17 c0 -5 -10
-15 -22 -21 l-23 -12 20 21 c23 24 25 25 25 12z m-190 -15 c-7 -9 -15 -13 -19
-10 -3 3 1 10 9 15 21 14 24 12 10 -5z m-1960 -5 c0 -5 -4 -10 -10 -10 -5 0
-10 5 -10 10 0 6 5 10 10 10 6 0 10 -4 10 -10z m270 -11 c0 -5 3 -8 8 -6 4 2
17 -6 30 -18 20 -18 21 -23 8 -28 -11 -4 -13 -1 -9 10 4 11 2 14 -5 9 -7 -4
-12 -3 -12 2 0 16 -33 24 -42 10 -12 -20 -9 -31 7 -25 20 8 28 -9 15 -30 -9
-15 -10 -14 -4 7 5 20 4 22 -6 13 -9 -8 -16 -9 -25 0 -9 9 -8 17 4 39 16 28
31 37 31 17z m380 -4 c18 -22 -3 -46 -22 -26 -11 10 -10 11 5 6 10 -4 17 -2
17 4 0 6 -9 11 -20 11 -11 0 -20 5 -20 10 0 15 26 12 40 -5z m130 9 c0 -3 -11
-22 -25 -42 -29 -43 -32 -38 -8 13 14 30 33 47 33 29z m980 -10 c0 -8 -19 -13
-24 -6 -3 5 1 9 9 9 8 0 15 -2 15 -3z m-40 -18 c0 -3 -4 -8 -10 -11 -5 -3 -10
-1 -10 4 0 6 5 11 10 11 6 0 10 -2 10 -4z m37 -14 c-10 -10 -15 -21 -13 -23 2
-2 -2 -10 -10 -17 -9 -8 -14 -9 -14 -2 0 6 -4 8 -10 5 -5 -3 -10 -2 -10 4 0
15 20 24 20 9 0 -7 6 -4 12 7 10 19 27 34 37 35 2 0 -3 -8 -12 -18z m50 -15
c1 -11 1 -18 0 -16 -2 2 -8 11 -15 20 -9 12 -9 16 1 16 7 0 14 -9 14 -20z m30
8 c0 -8 -4 -12 -9 -9 -5 3 -6 10 -3 15 9 13 12 11 12 -6z m113 5 c0 -5 -2 -10
-4 -10 -3 0 -8 5 -11 10 -3 6 -1 10 4 10 6 0 11 -4 11 -10z m-1399 -17 c13
-16 12 -17 -3 -4 -10 7 -18 15 -18 17 0 8 8 3 21 -13z m1323 2 c-5 -11 -2 -14
12 -9 11 4 16 4 12 0 -3 -4 -18 -9 -32 -10 -25 -3 -26 -2 -10 15 21 23 25 24
18 4z m-1774 -5 c0 -5 -5 -10 -11 -10 -5 0 -7 5 -4 10 3 6 8 10 11 10 2 0 4
-4 4 -10z m54 1 c11 -4 15 -10 10 -13 -5 -4 -18 0 -29 8 -20 15 -12 17 19 5z
m37 -14 c-10 -9 -11 -8 -5 6 3 10 9 15 12 12 3 -3 0 -11 -7 -18z m359 -13 c0
-2 -9 0 -19 6 -11 5 -26 8 -33 7 -7 -2 -10 -2 -5 0 4 3 4 9 1 15 -3 5 8 2 25
-6 17 -9 31 -19 31 -22z m1070 16 c-6 -11 -13 -20 -16 -20 -2 0 0 9 6 20 6 11
13 20 16 20 2 0 0 -9 -6 -20z m55 -9 c-6 -5 -25 10 -25 20 0 5 6 4 14 -3 8 -7
12 -15 11 -17z m105 19 c0 -5 -2 -10 -4 -10 -3 0 -8 5 -11 10 -3 6 -1 10 4 10
6 0 11 -4 11 -10z m201 -13 c-10 -9 -11 -8 -5 6 3 10 9 15 12 12 3 -3 0 -11
-7 -18z m39 9 c0 -2 -8 -10 -17 -17 -16 -13 -17 -12 -4 4 13 16 21 21 21 13z
m-1729 -29 c-10 -9 -11 -8 -5 6 3 10 9 15 12 12 3 -3 0 -11 -7 -18z m349 13
c8 -5 11 -10 5 -10 -5 0 -17 5 -25 10 -8 5 -10 10 -5 10 6 0 17 -5 25 -10z
m171 -13 c-10 -9 -11 -8 -5 6 3 10 9 15 12 12 3 -3 0 -11 -7 -18z m34 14 c3
-5 2 -12 -3 -15 -5 -3 -9 1 -9 9 0 17 3 19 12 6z m-60 -11 c-3 -5 -12 -10 -18
-10 -7 0 -6 4 3 10 19 12 23 12 15 0z m-188 -17 c0 -17 -5 -16 -23 1 -12 13
-12 15 4 13 10 0 19 -7 19 -14z m-172 -3 c3 -6 -1 -7 -9 -4 -9 3 -16 1 -16 -5
0 -6 4 -11 9 -11 5 0 11 -7 15 -15 7 -19 4 -19 -22 3 -16 14 -18 22 -10 30 15
15 25 15 33 2z m38 -9 c-4 -3 -11 -10 -15 -15 -4 -4 -6 1 -5 12 1 12 6 18 15
15 7 -3 10 -9 5 -12z m1078 2 c13 -17 13 -17 -6 -3 -11 8 -22 16 -24 17 -2 2
0 3 6 3 6 0 17 -8 24 -17z m96 -10 c-17 -17 -60 -26 -51 -11 4 5 12 7 19 4 8
-3 19 2 25 10 7 8 15 14 18 14 4 0 -1 -8 -11 -17z m50 -6 c-2 -6 -13 -11 -25
-12 -11 -1 -19 2 -16 7 4 5 13 7 21 4 11 -5 13 -2 9 9 -3 10 -2 13 5 10 5 -4
8 -12 6 -18z m-1417 3 c0 -5 -2 -10 -4 -10 -3 0 -8 5 -11 10 -3 6 -1 10 4 10
6 0 11 -4 11 -10z m1103 -5 c-3 -9 -8 -14 -10 -11 -3 3 -2 9 2 15 9 16 15 13
8 -4z m163 -12 c-6 -6 -36 9 -36 18 0 5 9 4 20 -3 10 -7 18 -14 16 -15z m-936
12 c0 -7 -30 -13 -34 -7 -3 4 4 9 15 9 10 1 19 0 19 -2z m1116 -13 c0 -10 -6
-19 -13 -19 -8 0 -9 6 -2 19 5 10 11 18 12 18 2 0 3 -8 3 -18z m37 -18 c-19
-29 -28 -32 -13 -4 6 11 8 25 5 30 -3 5 1 7 9 4 14 -5 13 -9 -1 -30z m-1437
-1 c-6 -6 -36 9 -36 18 0 5 9 4 20 -3 10 -7 18 -14 16 -15z m78 12 c10 -7 15
-18 11 -24 -9 -15 -18 -14 -41 5 -18 15 -18 15 3 5 34 -17 40 -12 14 9 -26 23
-16 27 13 5z m236 11 c0 -2 -7 -7 -16 -10 -8 -3 -12 -2 -9 4 6 10 25 14 25 6z
m1148 -34 c-14 -15 -34 -38 -44 -51 -33 -43 -174 -200 -185 -207 -7 -4 -10
-76 -9 -213 2 -113 1 -278 -1 -366 -3 -138 -4 -122 -9 118 -4 232 -7 279 -20
287 -8 5 -10 10 -4 10 18 0 24 38 8 50 -7 7 -18 9 -23 5 -7 -3 -8 0 -5 10 5
12 9 13 20 4 12 -9 14 -5 14 25 0 50 9 65 108 176 47 52 103 116 126 141 22
26 43 45 45 43 3 -2 -7 -17 -21 -32z m-1482 -9 c-6 -6 -36 9 -36 18 0 5 9 4
20 -3 10 -7 18 -14 16 -15z m509 17 c3 -6 -1 -7 -9 -4 -18 7 -21 14 -7 14 6 0
13 -4 16 -10z m500 -11 c0 -8 -8 -13 -18 -12 -13 1 -17 -4 -12 -15 5 -13 3
-14 -6 -5 -14 14 -3 34 16 26 17 -6 21 12 5 20 -6 3 -5 4 2 3 7 -2 13 -9 13
-17z m170 3 c-3 -3 -11 0 -18 7 -9 10 -8 11 6 5 10 -3 15 -9 12 -12z m-1054
-25 c-10 -9 -11 -8 -5 6 3 10 9 15 12 12 3 -3 0 -11 -7 -18z m1195 11 c-10 -6
-22 -6 -26 -2 -5 5 3 10 18 11 22 1 24 0 8 -9z m61 -10 c-3 -8 -6 -5 -6 6 -1
11 2 17 5 13 3 -3 4 -12 1 -19z m-147 -35 c0 -2 -11 4 -25 13 -14 9 -25 20
-25 25 0 5 11 -1 25 -13 14 -12 25 -23 25 -25z m-1073 12 c8 -9 13 -18 10 -22
-3 -3 8 -17 24 -30 16 -14 27 -28 25 -31 -3 -3 3 -12 13 -21 11 -9 29 -36 41
-59 12 -23 26 -39 31 -36 5 3 6 -2 3 -10 -9 -24 -40 -2 -47 34 -4 17 -18 43
-32 58 -14 15 -25 30 -25 35 0 4 -5 5 -10 2 -6 -4 -9 -2 -8 3 2 6 0 9 -4 9
-13 -3 -36 37 -30 52 4 10 1 13 -11 8 -11 -4 -14 -2 -10 9 7 18 11 18 30 -1z
m1229 -17 c-9 -12 -16 -19 -16 -15 0 11 24 47 28 42 2 -2 -3 -14 -12 -27z
m-338 -1 c8 -10 6 -13 -7 -13 -11 0 -17 6 -14 13 3 7 6 13 8 13 1 0 7 -6 13
-13z m405 -3 c-5 -13 -2 -15 17 -9 20 6 21 5 9 -8 -12 -13 -16 -13 -28 -2 -7
7 -10 18 -7 24 11 17 16 13 9 -5z m-316 -19 c0 -8 -4 -12 -9 -9 -5 3 -6 10 -3
15 9 13 12 11 12 -6z m297 -13 c3 -5 -1 -9 -9 -9 -8 0 -12 4 -9 9 3 4 7 8 9 8
2 0 6 -4 9 -8z m-40 -37 c-4 -8 -11 -15 -16 -15 -6 0 -5 6 2 15 7 8 14 15 16
15 2 0 1 -7 -2 -15z m-384 -13 c0 -5 -7 -17 -15 -28 -14 -18 -14 -17 -4 9 12
27 19 34 19 19z m-895 -31 c-6 -5 -25 10 -25 20 0 5 6 4 14 -3 8 -7 12 -15 11
-17z m171 -379 c1 -153 5 -355 9 -449 5 -115 5 -173 -2 -173 -6 0 -12 100 -16
273 -9 373 -9 642 0 633 5 -4 8 -132 9 -284z m268 220 c3 -5 -1 -9 -9 -9 -8 0
-12 4 -9 9 3 4 7 8 9 8 2 0 6 -4 9 -8z m1 -52 c1 -10 -2 -17 -6 -14 -4 2 -7
13 -6 24 2 23 10 17 12 -10z m446 -3 c-10 -9 -11 -8 -5 6 3 10 9 15 12 12 3
-3 0 -11 -7 -18z m-443 -52 c-3 -3 -9 2 -12 12 -6 14 -5 15 5 6 7 -7 10 -15 7
-18z m832 1 c0 -3 -4 -8 -10 -11 -5 -3 -10 -1 -10 4 0 6 5 11 10 11 6 0 10 -2
10 -4z m480 -85 c-5 -11 -15 -23 -20 -26 -6 -4 -8 -11 -4 -16 3 -6 -4 -21 -17
-35 -17 -18 -26 -21 -35 -13 -11 9 -11 15 1 33 8 13 12 26 8 31 -5 4 -2 5 4 1
7 -4 24 4 40 18 33 31 37 32 23 7z m-2154 -69 c17 6 17 -16 0 -27 -13 -8 -20
-6 -31 8 -7 11 -11 26 -8 34 6 14 8 14 18 -1 7 -9 17 -15 21 -14z m3 -389 c1
-13 103 45 132 76 8 9 30 29 47 46 l32 29 32 -38 c48 -58 149 -130 160 -114 7
10 8 9 5 -2 -2 -8 2 -23 11 -32 14 -16 13 -18 -4 -18 -11 0 -34 -16 -53 -36
-25 -28 -35 -34 -41 -23 -9 14 -7 19 23 61 18 24 18 28 4 48 -8 12 -33 33 -54
47 -21 14 -46 35 -55 47 -17 21 -18 21 -80 -44 -34 -36 -66 -64 -71 -62 -12 4
-108 -78 -102 -88 3 -4 -3 -7 -12 -6 -10 0 -18 -5 -18 -13 0 -8 -12 -18 -27
-22 -30 -8 -39 -3 -31 17 3 8 0 14 -6 14 -6 0 -11 -4 -11 -10 0 -5 -6 -10 -14
-10 -8 0 -16 -6 -19 -12 -2 -7 -8 -10 -12 -6 -13 12 36 49 69 52 5 1 14 10 20
21 6 10 17 25 24 33 6 7 12 18 12 23 0 6 5 7 10 4 11 -7 11 -11 12 190 l1 150
7 -155 c4 -85 8 -161 9 -167z m1901 137 c0 -16 71 -90 81 -84 5 3 9 1 9 -4 0
-12 77 -54 93 -50 14 3 299 -270 318 -305 10 -17 9 -17 -13 -3 -13 9 -34 29
-46 46 -12 16 -27 29 -32 27 -5 -1 -24 13 -44 31 -20 18 -37 28 -41 22 -13
-21 -25 -9 -19 18 7 24 6 26 -10 13 -9 -8 -20 -11 -23 -7 -4 4 -1 11 6 15 10
6 4 17 -24 42 -20 19 -44 37 -53 41 -26 10 -54 9 -47 -2 11 -17 -5 -11 -45 17
-21 16 -53 50 -72 78 -52 78 -55 79 -111 31 -27 -22 -67 -58 -89 -78 -36 -34
-58 -47 -58 -33 0 7 93 92 143 130 26 20 47 42 47 50 0 8 7 15 15 15 8 0 15
-4 15 -10z m-1363 -62 c-3 -8 -6 -5 -6 6 -1 11 2 17 5 13 3 -3 4 -12 1 -19z
m-62 -158 c-3 -5 -12 -10 -18 -10 -7 0 -6 4 3 10 19 12 23 12 15 0z m1474
-152 c46 -40 102 -88 125 -106 22 -19 41 -41 41 -50 0 -10 6 -28 13 -42 14
-25 -6 -6 -106 108 -57 64 -90 96 -161 153 -30 24 -61 55 -70 69 -11 17 -1 11
29 -17 25 -23 83 -74 129 -115z m-2143 46 c-22 -21 -31 -12 -16 16 8 15 15 19
22 12 8 -8 6 -16 -6 -28z m594 -45 c-25 -22 -72 -63 -105 -91 -33 -28 -94 -81
-135 -118 -453 -404 -482 -430 -488 -430 -8 0 16 24 163 155 369 331 592 525
603 525 4 -1 -13 -19 -38 -41z m-630 22 c0 -6 -4 -13 -10 -16 -5 -3 -10 1 -10
9 0 9 5 16 10 16 6 0 10 -4 10 -9z m365 -41 c-16 -17 -58 -49 -94 -72 -37 -24
-69 -48 -74 -55 -4 -6 -21 -22 -38 -34 -27 -19 -29 -19 -19 -3 13 21 53 53
170 138 88 63 93 66 55 26z m-415 0 c0 -5 -4 -10 -10 -10 -5 0 -10 5 -10 10 0
6 5 10 10 10 6 0 10 -4 10 -10z m2255 -215 c77 -72 161 -148 188 -169 26 -21
45 -41 43 -44 -11 -10 -476 404 -476 424 0 10 103 -79 245 -211z m-2527 129
c32 -16 43 -34 20 -34 -16 0 -77 49 -62 50 6 0 25 -7 42 -16z m3227 6 c-8 -14
-86 -53 -92 -47 -3 3 6 11 19 18 12 8 32 19 43 25 26 15 38 17 30 4z m-185
-32 l23 -33 -31 29 c-34 31 -37 36 -24 36 5 0 19 -15 32 -32z m-141 -220 c58
-56 79 -78 46 -50 -76 64 -232 213 -186 177 19 -15 82 -72 140 -127z m-2485
107 c-27 -36 -34 -41 -34 -26 0 9 46 61 55 61 3 0 -6 -16 -21 -35z m-44 -38
c0 -1 -33 -34 -72 -72 -85 -82 -85 -80 -3 10 51 55 75 75 75 62z m2911 -74
c13 -16 12 -17 -3 -4 -10 7 -18 15 -18 17 0 8 8 3 21 -13z m-4026 -168 c22
-20 30 -31 18 -25 -13 6 -49 36 -80 66 -42 40 -47 47 -18 25 22 -16 58 -46 80
-66z m755 91 c0 -3 -4 -8 -10 -11 -5 -3 -10 -1 -10 4 0 6 5 11 10 11 6 0 10
-2 10 -4z m210 1 c0 -2 -12 -14 -26 -28 l-27 -24 18 28 c14 22 35 36 35 24z
m2613 -76 c39 -37 131 -141 125 -141 -2 0 -46 43 -98 96 -90 91 -109 122 -27
45z m-2623 -144 c0 -2 -15 -16 -32 -33 l-33 -29 29 33 c28 30 36 37 36 29z
m2825 -64 l18 -28 -21 19 c-12 11 -22 23 -22 28 0 14 7 9 25 -19z m-3842 -53
c15 -12 39 -48 55 -81 25 -51 26 -57 8 -40 -14 13 -26 17 -36 11 -13 -7 -15
-3 -12 25 6 49 -33 87 -80 79 -48 -9 -69 -37 -56 -74 14 -41 44 -60 82 -54
l31 5 -25 -15 c-38 -23 -55 -19 -89 19 -33 38 -47 77 -36 95 14 22 70 50 101
50 17 0 43 -9 57 -20z m3942 -48 c-7 -7 -45 29 -45 41 0 6 11 0 25 -13 14 -13
23 -26 20 -28z m1025 28 c27 -27 25 -33 -12 -54 l-33 -17 23 19 c27 25 28 38
3 52 -43 23 -65 12 -125 -60 -32 -38 -63 -70 -68 -70 -5 0 20 34 57 75 59 65
72 75 101 75 21 0 42 -8 54 -20z m-4845 -150 c3 -5 1 -10 -4 -10 -6 0 -11 5
-11 10 0 6 2 10 4 10 3 0 8 -4 11 -10z m4603 -6 c-13 -13 -48 -16 -199 -19
l-184 -4 170 10 c94 5 181 13 195 18 35 13 36 13 18 -5z m-4485 -1 c-7 -2 -19
-2 -25 0 -7 3 -2 5 12 5 14 0 19 -2 13 -5z m115 -170 c-65 -2 -171 -2 -235 0
-65 1 -12 3 117 3 129 0 182 -2 118 -3z m4365 0 c-62 -2 -165 -2 -230 0 -65 1
-14 3 112 3 127 0 180 -2 118 -3z m-4240 -140 c-7 -2 -21 -2 -30 0 -10 3 -4 5
12 5 17 0 24 -2 18 -5z m4307 -2 c70 -6 19 -8 -195 -8 -159 1 -254 3 -210 6
130 10 303 11 405 2z m-4642 -8 c-10 -2 -28 -2 -40 0 -13 2 -5 4 17 4 22 1 32
-1 23 -4z m65 0 c-7 -2 -21 -2 -30 0 -10 3 -4 5 12 5 17 0 24 -2 18 -5z m70 0
c-7 -2 -19 -2 -25 0 -7 3 -2 5 12 5 14 0 19 -2 13 -5z m200 -130 c-7 -2 -21
-2 -30 0 -10 3 -4 5 12 5 17 0 24 -2 18 -5z m-220 -10 c-7 -2 -19 -2 -25 0 -7
3 -2 5 12 5 14 0 19 -2 13 -5z m4309 0 c-51 -2 -132 -2 -180 0 -48 1 -6 3 93
3 99 0 138 -2 87 -3z m171 0 c-7 -2 -19 -2 -25 0 -7 3 -2 5 12 5 14 0 19 -2
13 -5z m-238 -121 c-3 -3 -11 0 -18 7 -9 10 -8 11 6 5 10 -3 15 -9 12 -12z
m-4588 -38 c-3 -3 -12 -4 -19 -1 -8 3 -5 6 6 6 11 1 17 -2 13 -5z m5356 -41
c-7 -2 -19 -2 -25 0 -7 3 -2 5 12 5 14 0 19 -2 13 -5z m-810 -30 c-29 -2 -77
-2 -105 0 -29 2 -6 3 52 3 58 0 81 -1 53 -3z m-3818 -63 c-3 -5 -31 -10 -61
-10 -34 0 -53 4 -49 10 3 6 31 10 61 10 34 0 53 -4 49 -10z m3614 -4 c-2 -2
-65 -6 -139 -8 -74 -3 -119 -2 -100 2 35 7 247 13 239 6z m566 -127 c-334 -12
-515 -15 -515 -7 0 8 194 13 525 14 l200 1 -210 -8z m258 4 c-7 -2 -21 -2 -30
0 -10 3 -4 5 12 5 17 0 24 -2 18 -5z m-4705 -10 c-76 -2 -200 -2 -275 0 -76 1
-14 3 137 3 151 0 213 -2 138 -3z m387 -63 c7 -11 -25 -11 -70 0 -27 7 -25 8
17 9 26 0 50 -3 53 -9z m3348 3 c-13 -2 -35 -2 -50 0 -16 2 -5 4 22 4 28 0 40
-2 28 -4z m-3633 -132 c22 -6 -69 -9 -255 -9 -159 1 -274 4 -255 8 52 10 470
11 510 1z m4542 -27 c58 -48 68 -59 42 -46 -11 6 -27 18 -34 27 -34 41 -56 43
-310 39 -135 -2 -283 -6 -328 -8 -48 -2 -80 0 -75 5 8 8 124 12 485 17 l176 2
44 -36z m-4293 -50 c49 -10 36 -24 -23 -24 -54 0 -83 14 -49 23 28 7 38 7 72
1z m3431 -4 c0 -5 -25 -10 -56 -10 -34 0 -53 4 -49 10 3 6 28 10 56 10 27 0
49 -4 49 -10z m-3535 -10 c4 -6 -15 -9 -52 -8 l-58 1 45 7 c25 4 48 8 52 8 4
1 10 -2 13 -8z m3644 1 c10 -7 1 -11 -32 -16 -55 -9 -90 7 -37 16 52 9 54 9
69 0z m249 -48 c-32 -2 -86 -2 -120 0 -35 2 -9 3 57 3 66 0 94 -1 63 -3z
m-4523 -87 c18 -8 41 -26 51 -41 10 -15 27 -31 38 -35 17 -7 18 -9 4 -9 -11
-1 -20 -12 -24 -28 -23 -98 -166 -126 -210 -42 -27 54 -9 111 48 148 39 25 48
25 93 7z m4950 -35 c28 -29 38 -48 37 -70 -2 -68 -65 -110 -137 -90 -38 11
-72 51 -81 98 -5 26 -1 36 29 66 28 28 43 35 74 35 32 0 46 -7 78 -39z m-4064
-68 l34 -37 -34 25 c-19 14 -37 31 -39 37 -6 20 2 14 39 -25z m3512 20 c-13
-2 -35 -2 -50 0 -16 2 -5 4 22 4 28 0 40 -2 28 -4z m324 0 c-20 -2 -52 -2 -70
0 -17 2 0 4 38 4 39 0 53 -2 32 -4z m-3851 -222 c32 -29 52 -50 43 -45 -31 16
-158 119 -158 127 -1 14 51 -23 115 -82z m3184 79 c0 -5 -10 -15 -22 -21 -31
-16 -80 -60 -223 -198 -192 -186 -316 -301 -336 -311 -10 -6 48 54 129 132 81
79 203 197 272 264 137 133 180 165 180 134z m-4236 -141 c-3 -6 -16 -8 -27
-5 -18 4 -91 -64 -412 -384 -214 -213 -406 -401 -425 -416 -19 -15 154 163
385 394 384 385 423 422 453 422 21 0 31 -4 26 -11z m114 4 c-16 -2 -40 -2
-55 0 -16 2 -3 4 27 4 30 0 43 -2 28 -4z m1238 -214 c118 -111 214 -204 214
-207 0 -3 -19 12 -42 34 -79 74 -321 299 -362 336 -23 20 -37 37 -33 38 5 0
105 -90 223 -201z m-375 94 c13 -16 12 -17 -3 -4 -17 13 -22 21 -14 21 2 0 10
-8 17 -17z m149 -128 c36 -33 69 -66 74 -75 5 -8 -36 28 -92 80 -56 52 -102
96 -102 99 0 5 17 -9 120 -104z m421 48 c13 -16 12 -17 -3 -4 -10 7 -18 15
-18 17 0 8 8 3 21 -13z m2499 -62 c0 -5 -7 -12 -16 -15 -14 -5 -15 -4 -4 9 14
17 20 19 20 6z m-2784 -113 l29 -33 -32 29 c-31 28 -38 36 -30 36 2 0 16 -15
33 -32z m2293 -105 c-35 -32 -104 -96 -154 -143 -100 -95 -145 -130 -169 -130
-25 0 -19 17 9 24 14 4 100 74 191 156 92 83 171 150 177 150 6 0 -18 -26 -54
-57z m-1837 -75 c68 -62 136 -125 153 -141 16 -15 38 -30 47 -33 17 -5 26 -24
11 -24 -21 0 -361 309 -341 310 5 0 63 -51 130 -112z m2018 9 c0 -2 -17 -19
-37 -38 l-38 -34 34 38 c33 34 41 42 41 34z m-2159 -124 c13 -16 12 -17 -3 -4
-10 7 -18 15 -18 17 0 8 8 3 21 -13z m2019 -18 c-13 -14 -28 -25 -34 -25 -6 0
3 11 19 25 39 31 45 32 15 0z m-823 -358 c-1 -67 -3 -9 -3 128 0 138 2 192 3
122 2 -71 2 -183 0 -250z m162 166 c-1 -76 -5 -192 -9 -258 -5 -101 -7 -79 -8
138 -1 166 2 257 8 257 6 0 9 -52 9 -137z m-821 -150 c-1 -270 -2 -273 -9
-123 -7 138 -2 400 7 400 2 0 3 -125 2 -277z m139 -61 c-1 -53 -3 -7 -3 103 0
110 2 154 3 97 2 -57 2 -147 0 -200z m810 15 c-1 -45 -3 -5 -3 88 0 94 2 130
3 82 2 -48 2 -125 0 -170z m-810 -184 c-3 -10 -5 -2 -5 17 0 19 2 27 5 18 2
-10 2 -26 0 -35z m-470 -262 c16 -1 30 -15 49 -48 15 -27 49 -84 75 -128 26
-44 75 -143 109 -220 34 -77 88 -191 121 -252 l59 -113 -85 0 -85 0 -46 71
-46 72 -119 -5 c-83 -4 -119 -2 -120 6 -2 24 2 93 7 129 l6 37 51 0 c55 -1 76
-11 96 -48 19 -36 22 -22 7 33 -15 57 -36 102 -78 163 -26 37 -32 41 -45 30
-18 -15 -54 -92 -118 -254 -25 -62 -61 -143 -81 -179 -31 -56 -40 -66 -58 -61
-11 3 -47 6 -78 6 -34 0 -58 4 -58 11 0 19 108 261 285 636 54 113 65 124 115
117 8 -1 25 -3 37 -3z m-1283 -40 c3 -20 6 -58 6 -86 l0 -50 -303 1 c-166 1
-323 2 -349 3 l-48 1 0 84 0 85 344 -1 344 -2 6 -35z m697 8 c41 -20 95 -78
111 -118 17 -42 13 -183 -7 -224 -18 -38 -73 -82 -118 -93 -22 -5 -26 -10 -21
-28 10 -32 62 -124 111 -192 24 -34 43 -64 43 -68 0 -3 -40 -6 -90 -6 -75 0
-91 3 -99 18 -5 9 -34 48 -64 85 -70 88 -204 285 -212 314 -6 21 -4 21 135 25
126 3 143 5 156 22 20 28 17 69 -5 97 -19 23 -23 24 -188 25 -92 0 -212 2
-265 2 l-98 2 0 79 c0 67 3 80 18 85 9 3 139 2 287 -1 235 -5 275 -8 306 -24z
m1200 21 c20 0 42 -21 110 -107 46 -60 107 -139 134 -178 28 -38 76 -102 106
-141 l55 -71 0 249 -1 249 81 4 82 4 4 -255 c2 -140 2 -313 0 -385 l-4 -129
-82 6 c-71 5 -83 9 -101 32 -11 14 -36 44 -55 67 -19 23 -93 117 -165 208 -81
104 -133 163 -139 157 -6 -6 -13 -136 -17 -291 -4 -154 -10 -283 -13 -287 -3
-3 -6 20 -6 51 l0 56 -72 3 -73 3 -5 290 c-3 160 -3 332 -1 384 l4 94 66 -7
c36 -3 78 -6 92 -6z m1352 -52 c9 -35 19 -73 23 -85 l6 -23 -238 0 c-132 0
-244 -4 -251 -8 -23 -15 -34 -62 -20 -90 l12 -27 192 -5 191 -5 43 -30 c63
-45 79 -83 79 -188 0 -52 -6 -101 -14 -120 -17 -39 -71 -92 -108 -106 -17 -6
-141 -11 -305 -11 l-278 -1 -3 79 -3 79 137 6 c76 4 192 7 260 7 116 0 124 1
138 22 23 33 20 74 -6 92 -18 13 -55 16 -191 16 -184 0 -212 7 -269 67 -81 85
-76 242 10 326 63 61 88 66 348 67 l231 0 16 -62z m342 -88 c109 -148 135
-175 135 -142 0 9 34 60 76 112 41 52 87 114 101 138 l25 42 94 0 c52 0 94 -3
94 -6 0 -18 -243 -338 -302 -397 l-28 -29 0 -164 0 -164 -74 0 c-58 0 -75 3
-80 16 -3 9 -6 79 -6 156 l0 140 -63 77 c-87 106 -231 299 -251 339 l-17 32
93 -1 93 0 110 -149z m1219 138 c3 -7 7 -46 10 -85 l5 -73 -240 0 c-226 0
-240 -1 -259 -20 -27 -27 -26 -75 2 -94 18 -13 55 -16 191 -16 145 0 173 -3
205 -19 45 -23 87 -66 101 -104 14 -36 14 -161 0 -210 -14 -51 -63 -104 -107
-117 -23 -7 -139 -10 -312 -8 l-275 3 3 75 c2 41 6 77 9 80 2 3 117 5 254 6
184 1 252 4 264 14 9 7 15 29 15 51 0 64 -16 69 -221 69 l-177 0 -48 33 c-79
54 -94 84 -94 189 0 99 9 124 63 176 59 57 85 61 360 62 190 0 249 -3 251 -12z
m-5080 -244 c3 -9 6 -126 6 -260 l0 -244 -80 0 -80 0 0 173 c0 96 -3 208 -6
250 l-7 77 44 1 c24 1 58 5 74 9 17 4 33 8 36 9 4 0 10 -6 13 -15z m535 -251
c-1 -115 -4 -219 -8 -233 -7 -24 -10 -25 -86 -23 l-80 2 -8 208 c-4 114 -5
218 -2 231 5 21 10 22 95 22 l90 0 -1 -207z m1651 -473 c0 -5 -5 -10 -11 -10
-5 0 -7 5 -4 10 3 6 8 10 11 10 2 0 4 -4 4 -10z m770 0 c11 -7 4 -10 -25 -9
-31 0 -36 2 -20 9 26 11 28 11 45 0z m-1672 -7 c-10 -2 -26 -2 -35 0 -10 3 -2
5 17 5 19 0 27 -2 18 -5z m600 0 c-16 -2 -40 -2 -55 0 -16 2 -3 4 27 4 30 0
43 -2 28 -4z m1355 0 c-13 -2 -33 -2 -45 0 -13 2 -3 4 22 4 25 0 35 -2 23 -4z
m315 0 c-16 -2 -40 -2 -55 0 -16 2 -3 4 27 4 30 0 43 -2 28 -4z m-1751 -835
c-3 -8 -6 -5 -6 6 -1 11 2 17 5 13 3 -3 4 -12 1 -19z"/>
<path d="M3430 9160 c0 -5 5 -10 10 -10 6 0 10 5 10 10 0 6 -4 10 -10 10 -5 0
-10 -4 -10 -10z"/>
<path d="M5840 9005 c-10 -12 -10 -18 0 -30 7 -8 16 -12 21 -9 5 3 6 -1 3 -9
-8 -21 27 -31 44 -13 13 13 13 17 -2 31 -9 9 -16 11 -16 5 0 -6 -5 -8 -10 -5
-8 5 -8 11 0 20 8 9 6 14 -6 19 -21 8 -20 8 -34 -9z m30 -4 c0 -6 -4 -13 -10
-16 -5 -3 -10 1 -10 9 0 9 5 16 10 16 6 0 10 -4 10 -9z m22 -53 c-7 -7 -12 -8
-12 -2 0 14 12 26 19 19 2 -3 -1 -11 -7 -17z"/>
<path d="M5737 8929 c-11 -14 -21 -19 -33 -15 -14 5 -15 4 -5 -8 10 -12 17
-13 32 -3 19 12 33 36 25 44 -2 2 -11 -6 -19 -18z"/>
<path d="M5740 8861 c0 -10 30 -24 37 -17 3 3 2 9 -2 15 -8 13 -35 15 -35 2z"/>
<path d="M3977 8823 c-4 -3 -7 -11 -7 -17 0 -6 5 -5 12 2 6 6 9 14 7 17 -3 3
-9 2 -12 -2z"/>
<path d="M3900 8800 c0 -5 5 -10 10 -10 6 0 10 5 10 10 0 6 -4 10 -10 10 -5 0
-10 -4 -10 -10z"/>
<path d="M5620 8780 c0 -5 5 -10 11 -10 5 0 7 5 4 10 -3 6 -8 10 -11 10 -2 0
-4 -4 -4 -10z"/>
<path d="M5899 7993 c-13 -16 -12 -17 4 -4 9 7 17 15 17 17 0 8 -8 3 -21 -13z"/>
<path d="M2345 5065 c-30 -29 -32 -64 -5 -98 26 -32 50 -40 84 -27 30 11 59
69 49 97 -20 58 -85 72 -128 28z"/>
<path d="M7289 5085 c-14 -8 -32 -28 -39 -45 -11 -25 -10 -34 5 -56 9 -14 32
-32 52 -40 31 -13 38 -13 59 1 25 16 44 52 44 81 0 22 -55 74 -77 74 -10 -1
-30 -7 -44 -15z"/>
<path d="M3288 9418 c12 -12 25 -19 28 -15 4 4 -1 14 -12 22 -29 22 -41 18
-16 -7z"/>
<path d="M3337 9416 c10 -14 22 -21 27 -16 5 5 14 7 20 6 6 -2 8 -1 4 1 -5 3
-8 11 -8 19 0 8 -4 14 -10 14 -5 0 -7 -8 -3 -17 6 -17 5 -17 -14 0 -28 25 -37
21 -16 -7z"/>
<path d="M3395 9430 c3 -5 8 -10 11 -10 2 0 4 5 4 10 0 6 -5 10 -11 10 -5 0
-7 -4 -4 -10z"/>
<path d="M3430 9428 c0 -9 7 -22 17 -29 15 -13 15 -12 3 11 -17 34 -20 36 -20
18z"/>
<path d="M3462 9420 c7 -10 14 -18 15 -16 6 6 -9 36 -18 36 -5 0 -4 -9 3 -20z"/>
<path d="M6101 9435 c0 -5 6 -21 14 -35 8 -14 14 -20 14 -15 0 6 -6 21 -14 35
-8 14 -14 21 -14 15z"/>
<path d="M6190 9430 c0 -5 5 -10 10 -10 6 0 10 5 10 10 0 6 -4 10 -10 10 -5 0
-10 -4 -10 -10z"/>
<path d="M3520 9420 c0 -5 5 -10 11 -10 5 0 7 5 4 10 -3 6 -8 10 -11 10 -2 0
-4 -4 -4 -10z"/>
<path d="M6165 9420 c3 -5 8 -10 11 -10 2 0 4 5 4 10 0 6 -5 10 -11 10 -5 0
-7 -4 -4 -10z"/>
<path d="M3462 9348 c7 -15 15 -23 17 -17 2 6 -4 18 -13 27 -15 15 -15 15 -4
-10z"/>
<path d="M3610 9366 c0 -2 8 -10 18 -17 15 -13 16 -12 3 4 -13 16 -21 21 -21
13z"/>
<path d="M6110 9361 c0 -6 4 -13 10 -16 6 -3 7 1 4 9 -7 18 -14 21 -14 7z"/>
<path d="M6186 9352 c-4 -11 -14 -23 -22 -26 -12 -5 -15 -2 -10 11 5 14 3 14
-9 -2 -8 -11 -18 -24 -23 -30 -21 -25 -21 -37 0 -15 31 33 57 37 55 10 -2 -24
-34 -57 -45 -46 -4 4 2 14 12 22 11 8 15 14 8 14 -6 0 -19 -12 -28 -26 -11
-16 -20 -21 -24 -14 -5 7 -11 6 -20 -5 -7 -8 -10 -18 -6 -22 3 -3 6 -1 6 6 0
8 7 10 20 6 13 -4 20 -2 20 6 0 7 9 4 23 -9 21 -20 23 -20 33 -4 6 9 10 28 9
42 -1 14 5 33 13 43 15 16 14 17 -2 11 -16 -6 -17 -5 -6 15 6 13 9 25 7 28 -3
2 -8 -4 -11 -15z m-16 -107 c-7 -9 -15 -13 -17 -11 -7 7 7 26 19 26 6 0 6 -6
-2 -15z"/>
<path d="M3490 9350 c0 -5 5 -10 11 -10 5 0 7 5 4 10 -3 6 -8 10 -11 10 -2 0
-4 -4 -4 -10z"/>
<path d="M3520 9350 c0 -5 5 -10 10 -10 6 0 10 5 10 10 0 6 -4 10 -10 10 -5 0
-10 -4 -10 -10z"/>
<path d="M6025 9339 c-4 -6 -5 -12 -2 -15 2 -3 7 2 10 11 7 17 1 20 -8 4z"/>
<path d="M3505 9320 c3 -5 8 -10 11 -10 2 0 4 5 4 10 0 6 -5 10 -11 10 -5 0
-7 -4 -4 -10z"/>
<path d="M3535 9320 c3 -5 8 -10 11 -10 2 0 4 5 4 10 0 6 -5 10 -11 10 -5 0
-7 -4 -4 -10z"/>
<path d="M3568 9323 c7 -3 16 -2 19 1 4 3 -2 6 -13 5 -11 0 -14 -3 -6 -6z"/>
<path d="M6099 9313 c-13 -16 -12 -17 4 -4 9 7 17 15 17 17 0 8 -8 3 -21 -13z"/>
<path d="M3477 9303 c-4 -3 -7 -11 -7 -17 0 -6 5 -5 12 2 6 6 9 14 7 17 -3 3
-9 2 -12 -2z"/>
<path d="M3601 9298 c-1 -10 -5 -18 -11 -18 -5 0 -10 -5 -10 -12 0 -8 6 -7 16
4 9 9 14 22 11 30 -4 9 -6 7 -6 -4z"/>
<path d="M3556 9288 c3 -5 10 -6 15 -3 13 9 11 12 -6 12 -8 0 -12 -4 -9 -9z"/>
<path d="M3486 9275 c-10 -7 -15 -18 -11 -24 10 -17 25 -13 18 6 -4 11 -3 14
5 9 7 -4 12 -1 12 8 0 19 0 19 -24 1z"/>
<path d="M6040 9270 c-6 -11 -8 -20 -6 -20 3 0 10 9 16 20 6 11 8 20 6 20 -3
0 -10 -9 -16 -20z"/>
<path d="M5906 9263 c-6 -14 -5 -15 5 -6 7 7 10 15 7 18 -3 3 -9 -2 -12 -12z"/>
<path d="M5949 9261 c13 -8 13 -12 0 -28 -12 -16 -12 -17 2 -6 9 7 19 9 24 5
4 -4 2 3 -4 16 -6 12 -17 22 -24 22 -8 0 -7 -3 2 -9z"/>
<path d="M6054 9248 l-19 -23 23 19 c21 18 27 26 19 26 -2 0 -12 -10 -23 -22z"/>
<path d="M3602 9230 c7 -14 11 -28 10 -32 -4 -16 16 -7 22 9 4 10 4 14 0 11
-3 -4 -15 3 -26 15 l-19 22 13 -25z"/>
<path d="M3636 9241 c-4 -6 0 -11 8 -11 21 0 20 -8 -4 -48 -22 -36 -25 -46
-11 -38 5 4 11 3 14 -1 2 -5 2 -2 0 5 -1 7 4 27 13 44 14 27 14 32 1 45 -10
10 -17 12 -21 4z"/>
<path d="M3685 9241 c-3 -5 -1 -12 5 -16 5 -3 10 1 10 9 0 18 -6 21 -15 7z"/>
<path d="M5920 9239 c0 -5 5 -7 10 -4 6 3 10 8 10 11 0 2 -4 4 -10 4 -5 0 -10
-5 -10 -11z"/>
<path d="M6222 9238 c2 -6 10 -14 16 -16 7 -2 10 2 6 12 -7 18 -28 22 -22 4z"/>
<path d="M6193 9233 c-15 -5 -17 -23 -4 -23 5 0 11 7 15 15 3 8 4 15 3 14 -1
0 -8 -3 -14 -6z"/>
<path d="M6000 9210 c6 -11 15 -20 20 -20 6 0 2 9 -7 20 -10 11 -19 20 -21 20
-1 0 2 -9 8 -20z"/>
<path d="M6105 9194 c-9 -14 -14 -28 -11 -32 3 -3 6 -1 6 4 0 6 9 20 20 32 12
12 17 22 12 22 -6 0 -17 -12 -27 -26z"/>
<path d="M5967 9195 c3 -8 9 -12 14 -9 12 7 11 11 -5 17 -10 4 -13 1 -9 -8z"/>
<path d="M3593 9165 c0 -14 2 -25 6 -25 10 0 11 39 2 45 -5 2 -8 -7 -8 -20z"/>
<path d="M3690 9180 c0 -5 5 -10 10 -10 6 0 10 5 10 10 0 6 -4 10 -10 10 -5 0
-10 -4 -10 -10z"/>
<path d="M3876 9177 c3 -10 9 -15 12 -12 3 3 0 11 -7 18 -10 9 -11 8 -5 -6z"/>
<path d="M5905 9180 c-3 -5 -13 -7 -23 -4 -14 5 -14 4 -3 -4 15 -11 41 -5 41
9 0 12 -7 11 -15 -1z"/>
<path d="M5922 9159 c-13 -16 -21 -29 -17 -29 7 0 55 47 55 55 0 13 -17 2 -38
-26z"/>
<path d="M6206 9174 c-4 -10 -1 -14 6 -12 15 5 23 28 10 28 -5 0 -13 -7 -16
-16z"/>
<path d="M5836 9171 c-3 -5 1 -11 9 -14 9 -4 12 -1 8 9 -6 16 -10 17 -17 5z"/>
<path d="M3660 9160 c0 -5 5 -10 11 -10 5 0 7 5 4 10 -3 6 -8 10 -11 10 -2 0
-4 -4 -4 -10z"/>
<path d="M3800 9160 c-12 -8 -11 -10 7 -10 12 0 24 -6 26 -12 4 -8 6 -9 6 -2
2 19 -23 34 -39 24z"/>
<path d="M6132 9145 c-6 -14 -8 -25 -3 -25 4 0 13 11 19 25 6 14 8 25 3 25 -4
0 -13 -11 -19 -25z"/>
<path d="M5814 9139 c-10 -17 9 -30 26 -18 12 9 12 10 -4 5 -13 -5 -17 -2 -12
9 6 17 0 20 -10 4z"/>
<path d="M3879 9133 c-8 -54 -7 -62 6 -50 7 7 9 15 4 18 -6 3 -7 13 -3 22 3 9
3 17 0 17 -3 0 -7 -3 -7 -7z"/>
<path d="M5993 9135 c4 -5 1 -15 -7 -24 -12 -14 -12 -18 0 -29 16 -15 15 -16
20 20 1 15 -3 31 -9 34 -7 4 -9 3 -4 -1z"/>
<path d="M3570 9115 c-13 -16 -40 -17 -52 0 -4 5 -10 6 -14 2 -11 -10 28 -37
45 -31 8 2 18 -1 22 -7 5 -8 15 -4 33 14 14 14 22 28 17 32 -5 3 -12 -1 -14
-7 -4 -10 -7 -10 -15 0 -7 10 -11 10 -22 -3z m20 -15 c0 -5 -4 -10 -10 -10 -5
0 -10 5 -10 10 0 6 5 10 10 10 6 0 10 -4 10 -10z"/>
<path d="M5739 9113 c-13 -16 -12 -17 4 -4 9 7 17 15 17 17 0 8 -8 3 -21 -13z"/>
<path d="M6015 9110 c-3 -5 -1 -10 4 -10 6 0 11 5 11 10 0 6 -2 10 -4 10 -3 0
-8 -4 -11 -10z"/>
<path d="M5865 9083 c-14 -14 -18 -14 -26 -2 -5 9 -9 10 -9 2 0 -23 22 -25 43
-4 12 11 19 21 15 21 -4 0 -14 -7 -23 -17z"/>
<path d="M5789 9081 c8 -5 10 -14 6 -22 -6 -11 -5 -11 5 -2 14 12 6 33 -13 33
-8 0 -7 -3 2 -9z"/>
<path d="M5617 9073 c-4 -3 -7 -11 -7 -17 0 -6 5 -5 12 2 6 6 9 14 7 17 -3 3
-9 2 -12 -2z"/>
<path d="M5650 9069 c0 -5 5 -7 10 -4 6 3 10 8 10 11 0 2 -4 4 -10 4 -5 0 -10
-5 -10 -11z"/>
<path d="M5736 9063 c-6 -14 -5 -15 5 -6 7 7 10 15 7 18 -3 3 -9 -2 -12 -12z"/>
<path d="M3874 9042 c17 -18 34 -32 40 -32 10 0 -12 23 -49 50 -11 8 -7 0 9
-18z"/>
<path d="M5663 9040 c-10 -14 -8 -22 6 -39 10 -12 22 -21 27 -21 4 0 3 5 -4
12 -19 19 -14 32 6 17 15 -13 16 -12 4 3 -8 10 -20 14 -30 11 -15 -6 -15 -5
-3 10 8 10 12 19 10 22 -3 2 -10 -4 -16 -15z"/>
<path d="M5741 9034 c-12 -15 -21 -31 -21 -37 0 -5 10 3 22 19 12 16 27 32 33
36 6 5 6 8 -2 8 -6 0 -21 -12 -32 -26z"/>
<path d="M6030 9050 c0 -5 5 -10 10 -10 6 0 10 5 10 10 0 6 -4 10 -10 10 -5 0
-10 -4 -10 -10z"/>
<path d="M4010 9044 c0 -13 18 -39 24 -34 2 3 -2 14 -10 24 -8 11 -14 16 -14
10z"/>
<path d="M5510 9041 c0 -5 5 -13 10 -16 6 -3 10 -2 10 4 0 5 -4 13 -10 16 -5
3 -10 2 -10 -4z"/>
<path d="M3975 9030 c-3 -5 -1 -10 6 -10 8 0 7 -5 -2 -17 -13 -16 -12 -17 3
-5 9 8 14 20 11 28 -6 17 -10 17 -18 4z"/>
<path d="M5560 9029 c0 -5 5 -7 10 -4 6 3 10 8 10 11 0 2 -4 4 -10 4 -5 0 -10
-5 -10 -11z"/>
<path d="M5607 9021 c3 -12 11 -17 19 -14 18 7 18 10 -5 22 -16 9 -18 8 -14
-8z"/>
<path d="M4370 9009 c0 -5 5 -7 10 -4 6 3 10 8 10 11 0 2 -4 4 -10 4 -5 0 -10
-5 -10 -11z"/>
<path d="M3880 9000 c0 -5 5 -10 11 -10 5 0 7 5 4 10 -3 6 -8 10 -11 10 -2 0
-4 -4 -4 -10z"/>
<path d="M4270 8996 c13 -16 12 -20 -9 -37 -16 -13 -21 -24 -16 -40 5 -16 3
-20 -6 -16 -8 2 -13 11 -11 18 1 8 -4 5 -13 -5 -18 -23 -19 -33 -5 -41 6 -3 7
1 4 10 -6 14 -3 14 28 -1 20 -9 35 -23 34 -32 0 -8 6 -17 14 -20 13 -5 13 -3
0 13 -13 16 -13 18 0 13 8 -2 15 -11 15 -19 1 -26 16 -38 45 -36 31 2 39 11
18 21 -10 5 -10 7 -1 12 8 4 9 13 3 30 -6 16 -6 24 1 24 6 0 13 -9 16 -19 3
-12 11 -17 19 -14 11 4 10 9 -8 24 -28 25 -44 19 -40 -15 1 -14 -2 -26 -9 -26
-6 0 -9 -7 -6 -14 4 -10 1 -13 -8 -10 -8 3 -11 12 -8 20 3 8 0 14 -7 14 -7 0
-10 7 -6 15 7 20 -27 38 -42 23 -9 -9 -12 -9 -12 0 0 17 39 54 50 47 6 -4 10
-2 10 4 0 14 -23 27 -27 15 -8 -24 -22 -36 -32 -29 -8 4 -3 15 15 31 14 14 25
26 23 27 -2 2 -13 9 -24 17 -19 14 -19 14 -5 -4z m25 -116 c3 -5 1 -10 -4 -10
-6 0 -11 5 -11 10 0 6 2 10 4 10 3 0 8 -4 11 -10z"/>
<path d="M4340 8995 c7 -8 17 -15 22 -15 5 0 3 7 -6 15 -8 8 -18 15 -22 15 -3
0 -1 -7 6 -15z"/>
<path d="M4711 8996 c2 -2 15 -9 29 -15 24 -11 24 -11 6 3 -16 13 -49 24 -35
12z"/>
<path d="M5464 8982 c-9 -13 -8 -21 4 -32 14 -13 15 -12 9 4 -4 10 -2 25 4 32
6 8 7 14 3 14 -5 0 -14 -8 -20 -18z"/>
<path d="M3737 8983 c-3 -5 1 -17 9 -28 14 -19 14 -19 29 1 17 23 19 34 5 34
-5 0 -10 -8 -10 -17 -1 -17 -2 -17 -14 0 -8 10 -16 15 -19 10z"/>
<path d="M4055 8970 c-10 -11 -13 -20 -7 -20 6 0 12 6 15 13 2 6 8 9 12 5 4
-4 2 -16 -6 -25 -11 -15 -11 -16 1 -5 17 14 34 16 25 2 -3 -5 -1 -10 5 -10 7
0 9 8 5 20 -4 12 -2 20 5 20 6 0 8 5 4 11 -4 8 -9 7 -15 -2 -7 -11 -11 -11
-17 -1 -7 9 -13 8 -27 -8z"/>
<path d="M4236 8978 c3 -5 10 -6 15 -3 13 9 11 12 -6 12 -8 0 -12 -4 -9 -9z"/>
<path d="M4436 8974 c-3 -9 -6 -17 -6 -18 0 -7 38 -46 45 -46 5 0 -2 12 -16
26 -16 18 -20 28 -11 31 14 5 17 23 3 23 -5 0 -12 -7 -15 -16z"/>
<path d="M4600 8986 c0 -2 7 -7 16 -10 8 -3 12 -2 9 4 -6 10 -25 14 -25 6z"/>
<path d="M5080 8975 c-7 -9 -8 -15 -2 -15 5 0 12 7 16 15 3 8 4 15 2 15 -2 0
-9 -7 -16 -15z"/>
<path d="M5240 8982 c0 -5 7 -15 15 -22 8 -7 15 -9 15 -6 0 4 -7 14 -15 22 -8
9 -15 11 -15 6z"/>
<path d="M3990 8965 c7 -8 18 -15 24 -14 7 0 6 2 -2 6 -6 2 -10 9 -6 14 3 5
-2 9 -12 9 -13 0 -14 -3 -4 -15z"/>
<path d="M4150 8972 c0 -4 9 -13 20 -20 23 -14 26 -7 6 14 -16 15 -26 18 -26
6z"/>
<path d="M4203 8969 c9 -6 14 -16 11 -22 -5 -8 -2 -7 7 1 12 11 12 14 -1 22
-8 5 -19 10 -25 10 -5 -1 -2 -5 8 -11z"/>
<path d="M4699 8971 c8 -5 10 -14 5 -22 -6 -11 -4 -11 10 0 13 11 14 16 4 22
-7 5 -17 9 -23 9 -5 0 -4 -4 4 -9z"/>
<path d="M5210 8965 c7 -9 15 -13 17 -11 7 7 -7 26 -19 26 -6 0 -6 -6 2 -15z"/>
<path d="M5660 8971 c13 -10 13 -13 -4 -26 -11 -8 -16 -18 -13 -22 9 -8 38 28
34 41 -2 6 -10 11 -18 14 -11 3 -11 2 1 -7z"/>
<path d="M5295 8960 c3 -5 8 -10 11 -10 2 0 4 5 4 10 0 6 -5 10 -11 10 -5 0
-7 -4 -4 -10z"/>
<path d="M4795 8950 c-3 -5 -2 -10 4 -10 5 0 13 5 16 10 3 6 2 10 -4 10 -5 0
-13 -4 -16 -10z"/>
<path d="M5333 8945 c-7 -8 -9 -16 -5 -19 4 -3 13 4 20 15 14 22 3 25 -15 4z"/>
<path d="M5100 8940 c8 -5 20 -10 25 -10 6 0 3 5 -5 10 -8 5 -19 10 -25 10 -5
0 -3 -5 5 -10z"/>
<path d="M5275 8940 c-3 -5 -1 -10 4 -10 6 0 11 5 11 10 0 6 -2 10 -4 10 -3 0
-8 -4 -11 -10z"/>
<path d="M5606 8935 c4 -8 11 -15 16 -15 6 0 5 6 -2 15 -7 8 -14 15 -16 15 -2
0 -1 -7 2 -15z"/>
<path d="M4380 8931 c0 -6 4 -13 10 -16 6 -3 7 1 4 9 -7 18 -14 21 -14 7z"/>
<path d="M4410 8931 c0 -10 19 -25 25 -20 1 2 -3 10 -11 17 -8 7 -14 8 -14 3z"/>
<path d="M4715 8921 c-7 -23 -15 -26 -33 -11 -9 7 -9 7 -2 -2 13 -15 13 -31 0
-23 -6 4 -7 -1 -3 -11 4 -11 8 -13 11 -6 8 26 21 10 17 -23 -3 -19 -1 -35 4
-35 14 0 21 28 9 32 -8 3 -7 11 4 27 9 12 19 18 22 13 3 -6 0 -13 -6 -15 -10
-4 -9 -8 2 -16 8 -6 11 -11 6 -11 -5 0 -2 -8 7 -18 10 -10 14 -22 10 -26 -4
-4 1 -4 12 0 19 7 19 7 2 -13 -16 -18 -16 -21 -1 -33 13 -12 17 -11 24 0 5 8
12 11 17 7 4 -5 1 -12 -7 -17 -11 -7 -9 -9 8 -7 17 1 22 7 22 27 0 14 -4 21
-8 15 -4 -5 -17 -11 -29 -12 -16 -2 -21 2 -17 12 4 8 11 12 16 9 6 -4 5 2 -1
14 -6 11 -20 23 -30 27 -27 8 -18 75 10 75 6 0 7 -5 4 -10 -15 -25 -15 -60 0
-60 8 0 15 5 15 10 0 18 17 10 28 -12 10 -22 11 -22 11 5 1 16 -3 26 -9 22 -5
-3 -10 -1 -10 6 0 8 -3 9 -13 0 -22 -18 -27 -1 -6 22 22 23 26 45 6 28 -8 -6
-17 -8 -20 -4 -4 3 -13 0 -22 -7 -9 -7 -18 -10 -22 -7 -3 4 -12 2 -20 -4 -16
-14 -17 -5 -2 23 6 11 8 22 6 25 -3 2 -8 -5 -12 -16z"/>
<path d="M4122 8918 c5 -15 28 -23 28 -10 0 5 -7 13 -16 16 -10 4 -14 1 -12
-6z"/>
<path d="M4610 8923 c0 -1 8 -7 18 -12 13 -7 19 -6 19 2 0 7 -9 13 -19 13 -10
0 -18 -1 -18 -3z"/>
<path d="M5085 8921 c9 -16 -7 -42 -22 -37 -8 3 -11 1 -8 -4 10 -16 22 -12 38
14 14 21 15 25 1 30 -8 3 -13 2 -9 -3z"/>
<path d="M3790 8910 c0 -5 5 -10 10 -10 6 0 10 5 10 10 0 6 -4 10 -10 10 -5 0
-10 -4 -10 -10z"/>
<path d="M4300 8912 c0 -5 7 -15 16 -23 13 -10 17 -10 25 2 12 19 11 29 -1 29
-5 0 -10 -5 -10 -11 0 -8 -5 -8 -15 1 -8 7 -15 8 -15 2z"/>
<path d="M4880 8911 c0 -6 5 -11 11 -11 5 0 8 -4 4 -10 -3 -5 -13 -6 -23 -3
-15 5 -15 4 1 -9 17 -13 17 -15 3 -27 -15 -12 -15 -15 1 -27 15 -11 15 -15 4
-23 -8 -5 -9 -11 -3 -15 6 -3 12 0 15 6 2 7 7 10 11 7 4 -4 -5 -21 -20 -38
-16 -20 -20 -29 -10 -25 20 8 21 -6 1 -32 -8 -10 -14 -23 -14 -29 0 -5 6 -1
14 9 11 15 15 16 15 5 0 -8 -5 -20 -12 -27 -15 -15 -19 -42 -6 -42 6 0 4 -7
-3 -17 -13 -15 -12 -15 9 -4 23 12 30 31 11 31 -6 0 -9 6 -7 13 6 16 58 17 83
0 23 -16 35 -17 35 -3 0 6 -7 10 -15 10 -8 0 -15 5 -15 10 0 15 11 12 32 -7
16 -14 18 -14 18 -1 0 16 -26 33 -45 29 -12 -2 23 26 39 32 6 2 8 8 4 12 -4 4
-17 -3 -29 -14 -13 -12 -29 -19 -35 -17 -6 2 -22 -3 -35 -11 -13 -10 -19 -11
-14 -4 4 8 2 17 -6 22 -7 4 -10 11 -6 16 5 4 12 1 18 -7 7 -12 11 -12 17 -2 5
7 16 10 25 7 10 -4 19 1 27 17 10 21 10 21 -3 6 -18 -23 -31 -23 -23 -1 6 15
4 15 -14 -2 -25 -22 -39 -13 -15 11 10 11 14 25 11 40 -6 21 -3 23 23 20 27
-3 29 -1 20 15 -11 22 -20 24 -38 7 -12 -11 -13 -10 -7 6 6 16 4 17 -9 6 -11
-10 -13 -15 -4 -20 8 -6 8 -9 0 -14 -11 -7 -15 6 -11 33 1 13 -1 13 -14 2 -14
-12 -16 -11 -10 3 4 10 13 15 20 12 7 -3 16 -1 20 5 3 6 13 8 22 4 13 -5 12
-1 -3 13 -16 15 -22 17 -28 6 -4 -8 -13 -14 -19 -14 -7 0 -7 4 1 14 9 10 8 16
-4 26 -10 9 -15 9 -15 1z m50 -129 c0 -5 -6 -17 -14 -28 -19 -25 -31 -12 -14
15 13 21 28 28 28 13z m25 -102 c3 -5 1 -10 -4 -10 -6 0 -11 5 -11 10 0 6 2
10 4 10 3 0 8 -4 11 -10z"/>
<path d="M5006 8903 c-4 -9 -3 -20 2 -25 6 -6 10 1 10 16 0 30 -3 32 -12 9z"/>
<path d="M5165 8910 c3 -5 8 -10 11 -10 2 0 4 5 4 10 0 6 -5 10 -11 10 -5 0
-7 -4 -4 -10z"/>
<path d="M5215 8910 c3 -5 8 -10 11 -10 2 0 4 5 4 10 0 6 -5 10 -11 10 -5 0
-7 -4 -4 -10z"/>
<path d="M5240 8897 c-9 -15 -14 -16 -26 -7 -8 8 -14 8 -14 2 0 -17 28 -21 41
-6 7 8 19 12 27 9 9 -3 19 0 23 6 5 9 12 8 24 -4 9 -10 19 -17 23 -17 3 0 -2
8 -11 18 -23 23 -72 22 -87 -1z"/>
<path d="M5380 8916 c0 -2 7 -9 15 -16 9 -7 15 -8 15 -2 0 5 -7 12 -15 16 -8
3 -15 4 -15 2z"/>
<path d="M3842 8898 c3 -7 13 -15 24 -17 16 -3 17 -1 5 13 -16 19 -34 21 -29
4z"/>
<path d="M5350 8900 c8 -5 20 -10 25 -10 6 0 3 5 -5 10 -8 5 -19 10 -25 10 -5
0 -3 -5 5 -10z"/>
<path d="M5597 8903 c-4 -3 -7 -11 -7 -17 0 -6 5 -5 12 2 6 6 9 14 7 17 -3 3
-9 2 -12 -2z"/>
<path d="M4450 8890 c13 -9 13 -11 0 -20 -13 -9 -13 -10 0 -10 12 -1 12 -3 -2
-14 -25 -18 -23 -21 21 -41 29 -13 38 -22 34 -34 -5 -13 -4 -14 8 -3 12 11 11
16 -9 30 -13 10 -24 28 -25 40 -1 12 -6 22 -12 22 -5 0 -4 4 4 9 17 11 6 31
-17 31 -15 0 -15 -2 -2 -10z m15 -60 c3 -5 1 -10 -4 -10 -6 0 -11 5 -11 10 0
6 2 10 4 10 3 0 8 -4 11 -10z"/>
<path d="M4825 8880 c3 -5 8 -10 11 -10 2 0 4 5 4 10 0 6 -5 10 -11 10 -5 0
-7 -4 -4 -10z"/>
<path d="M5165 8880 c-3 -5 -1 -10 4 -10 6 0 11 5 11 10 0 6 -2 10 -4 10 -3 0
-8 -4 -11 -10z"/>
<path d="M4233 8867 c6 -15 3 -17 -15 -11 -20 6 -21 5 -9 -10 12 -14 12 -16
-3 -10 -9 3 -16 2 -16 -4 0 -14 34 -25 38 -12 2 6 10 17 18 24 11 12 11 16 -3
28 -15 11 -16 11 -10 -5z"/>
<path d="M5121 8864 c-7 -8 -11 -16 -10 -18 35 -23 58 -34 63 -29 11 12 6 31
-10 37 -14 5 -15 4 -4 -9 13 -16 3 -20 -18 -7 -7 5 -10 16 -6 25 8 21 3 21
-15 1z"/>
<path d="M5305 8860 c10 -11 23 -20 29 -20 6 0 4 5 -4 10 -8 5 -10 10 -5 10
12 0 -16 20 -29 20 -5 0 -1 -9 9 -20z"/>
<path d="M5380 8871 c0 -8 -7 -11 -17 -6 -15 5 -16 4 -5 -6 9 -10 15 -10 24
-1 6 6 9 15 5 19 -4 3 -7 1 -7 -6z"/>
<path d="M5620 8855 c-7 -13 -17 -22 -22 -19 -10 7 -38 -14 -38 -28 0 -6 6 -5
15 2 8 6 18 9 24 6 8 -6 51 43 51 58 0 15 -18 4 -30 -19z"/>
<path d="M4330 8860 c0 -5 5 -10 11 -10 5 0 7 5 4 10 -3 6 -8 10 -11 10 -2 0
-4 -4 -4 -10z"/>
<path d="M4566 8843 c-6 -14 -5 -15 5 -6 7 7 10 15 7 18 -3 3 -9 -2 -12 -12z"/>
<path d="M5005 8850 c3 -5 8 -10 11 -10 2 0 4 5 4 10 0 6 -5 10 -11 10 -5 0
-7 -4 -4 -10z"/>
<path d="M5565 8850 c-4 -7 -16 -10 -26 -7 -11 3 -19 4 -19 2 0 -2 -3 -10 -6
-18 -3 -8 2 -17 10 -20 10 -4 13 -1 9 9 -3 9 0 12 9 9 15 -6 45 21 35 31 -3 3
-8 0 -12 -6z"/>
<path d="M5070 8839 c0 -6 -7 -8 -17 -5 -16 6 -16 6 0 -12 22 -24 22 -33 0
-25 -12 4 -9 -2 7 -15 24 -20 24 -21 3 -15 -27 6 -32 -17 -8 -37 12 -10 20 -9
39 4 14 9 32 13 40 10 9 -3 16 -1 16 5 0 6 5 11 11 11 6 0 9 -7 5 -15 -3 -8
-1 -15 4 -15 6 0 10 5 10 10 0 6 0 13 0 18 0 11 -64 10 -72 -2 -4 -6 -10 -7
-14 -4 -3 4 1 14 10 23 9 9 16 21 16 26 0 5 5 9 11 9 6 0 8 -9 4 -20 -4 -12
-2 -20 5 -20 6 0 8 5 4 11 -4 8 0 9 15 4 11 -3 21 -3 21 2 0 11 -51 34 -61 27
-5 -3 -9 -1 -9 3 0 5 -9 14 -20 21 -14 8 -20 9 -20 1z m28 -21 c7 -9 5 -17 -6
-28 -14 -13 -15 -12 -9 3 3 9 2 17 -3 17 -6 0 -10 5 -10 10 0 14 16 13 28 -2z
m-13 -79 c-7 -10 -35 -1 -35 11 0 5 9 6 20 3 11 -3 17 -9 15 -14z"/>
<path d="M4253 8833 c-18 -6 -16 -24 4 -38 14 -10 20 -10 31 2 8 8 13 15 11
16 -2 2 -11 8 -19 13 -8 6 -21 9 -27 7z m27 -23 c0 -5 -4 -10 -9 -10 -6 0 -13
5 -16 10 -3 6 1 10 9 10 9 0 16 -4 16 -10z"/>
<path d="M4675 8830 c-3 -5 -1 -10 4 -10 6 0 11 5 11 10 0 6 -2 10 -4 10 -3 0
-8 -4 -11 -10z"/>
<path d="M4997 8824 c3 -7 9 -14 14 -14 14 0 10 17 -5 23 -10 4 -13 1 -9 -9z"/>
<path d="M4805 8820 c3 -5 8 -10 11 -10 2 0 4 5 4 10 0 6 -5 10 -11 10 -5 0
-7 -4 -4 -10z"/>
<path d="M4725 8811 c-3 -6 1 -14 10 -17 12 -5 13 -10 4 -20 -8 -10 -5 -17 10
-31 26 -21 27 -35 4 -26 -16 6 -16 5 -4 -10 8 -10 11 -20 7 -24 -3 -3 -6 -1
-6 5 0 7 -5 12 -11 12 -6 0 -8 -7 -5 -15 4 -10 -6 -7 -27 9 l-33 25 -2 -36
c-2 -28 0 -34 12 -30 11 4 13 1 9 -10 -5 -12 -2 -15 10 -10 8 3 21 -1 27 -8
10 -12 9 -16 -4 -21 -9 -3 -13 -11 -9 -17 4 -6 1 -7 -7 -2 -10 6 -10 11 3 20
9 7 14 15 10 19 -3 3 -15 -2 -25 -11 -18 -16 -18 -16 -12 2 5 12 4 16 -4 12
-7 -5 -9 -57 -7 -165 3 -86 5 -380 5 -653 l0 -497 25 2 c15 0 23 6 21 13 -3 7
0 15 6 19 7 4 8 3 4 -4 -8 -13 -5 -14 36 -17 31 -2 45 20 26 43 -10 12 -10 14
0 8 7 -4 12 -2 12 6 0 8 -6 20 -12 27 -11 11 -10 12 1 6 9 -5 12 -3 9 6 -3 8
-1 26 3 42 4 15 4 27 -2 27 -5 0 -9 -5 -9 -12 0 -6 -3 -9 -6 -5 -3 3 4 20 16
37 24 34 21 63 -7 54 -15 -5 -16 -4 -3 6 11 9 12 13 3 17 -10 4 -10 7 0 18 8
7 13 31 11 56 -1 24 0 36 3 27 2 -10 9 -18 14 -18 14 0 6 33 -11 47 -12 10
-13 14 -2 25 11 11 12 10 6 -6 -5 -13 -4 -17 3 -13 17 11 17 304 1 310 -10 4
-10 6 0 6 8 1 12 17 12 46 0 29 -4 45 -12 45 -10 0 -10 2 -1 8 18 11 20 506 3
527 -9 11 -9 15 -1 15 6 0 11 4 11 10 0 5 -7 7 -15 4 -8 -4 -15 -11 -15 -16 0
-5 -10 -18 -22 -29 -28 -22 -11 -25 20 -3 23 16 29 12 12 -9 -6 -7 -17 -21
-24 -31 -11 -16 -16 -17 -32 -7 -18 11 -17 12 4 6 25 -7 30 10 6 19 -15 6 -14
10 7 33 16 18 20 27 12 30 -7 3 -13 9 -13 15 0 7 4 7 13 0 8 -7 18 -6 32 5 20
15 20 15 -2 8 -14 -4 -23 -2 -23 4 0 6 -6 11 -14 11 -18 0 -27 14 -31 46 -3
31 -20 50 -30 35z m-20 -131 c3 -6 -1 -7 -9 -4 -18 7 -21 14 -7 14 6 0 13 -4
16 -10z m125 -86 c0 -8 -4 -12 -10 -9 -5 3 -10 10 -10 16 0 5 5 9 10 9 6 0 10
-7 10 -16z m-90 -24 c-6 -11 -13 -20 -16 -20 -2 0 0 9 6 20 6 11 13 20 16 20
2 0 0 -9 -6 -20z m87 -27 c0 -16 -2 -22 -4 -15 -3 6 -9 9 -15 6 -6 -4 -5 2 1
15 15 28 19 27 18 -6z m-77 -92 c0 -5 -7 -12 -16 -15 -14 -5 -15 -4 -4 9 14
17 20 19 20 6z m75 -210 c-3 -6 -11 -11 -16 -11 -5 0 -4 6 3 14 14 16 24 13
13 -3z m-80 -821 c3 -5 1 -10 -4 -10 -6 0 -11 5 -11 10 0 6 2 10 4 10 3 0 8
-4 11 -10z m55 -70 c0 -5 -2 -10 -4 -10 -3 0 -8 5 -11 10 -3 6 -1 10 4 10 6 0
11 -4 11 -10z m-23 -16 c-3 -3 -12 -4 -19 -1 -8 3 -5 6 6 6 11 1 17 -2 13 -5z"/>
<path d="M4672 8773 c-1 -34 25 -73 48 -73 17 0 20 34 5 50 -13 14 -13 19 -3
23 9 3 8 9 -7 21 -31 24 -42 19 -43 -21z m33 -6 c1 -20 -2 -24 -12 -15 -9 8
-10 14 -3 23 8 9 8 15 0 18 -6 3 -5 4 2 3 7 -2 13 -14 13 -29z"/>
<path d="M5009 8798 c-5 -17 -4 -50 3 -54 4 -3 8 9 8 25 0 17 -2 31 -5 31 -3
0 -5 -1 -6 -2z"/>
<path d="M4256 8761 c-4 -7 -5 -15 -2 -18 9 -9 19 4 14 18 -4 11 -6 11 -12 0z"/>
<path d="M5000 8690 c0 -5 5 -10 10 -10 6 0 10 5 10 10 0 6 -4 10 -10 10 -5 0
-10 -4 -10 -10z"/>
<path d="M4635 8640 c-3 -6 1 -7 9 -4 18 7 21 14 7 14 -6 0 -13 -4 -16 -10z"/>
<path d="M4901 8633 c8 -10 19 -22 24 -26 6 -5 3 -7 -6 -4 -16 5 -52 -27 -42
-37 4 -3 1 -6 -5 -6 -7 0 -12 -7 -12 -15 0 -8 5 -15 12 -15 8 0 9 -3 2 -10
-12 -12 -5 -102 7 -94 5 3 9 1 9 -5 0 -5 -6 -12 -12 -14 -10 -4 -9 -8 2 -16
10 -7 11 -11 3 -11 -18 0 -16 -37 2 -43 8 -4 17 -2 20 3 4 6 1 10 -5 10 -6 0
-8 5 -5 11 9 14 16 6 19 -25 3 -21 1 -24 -15 -16 -23 13 -29 12 -29 0 0 -5 6
-10 14 -10 8 0 18 -5 22 -11 4 -8 0 -9 -15 -4 -28 9 -27 -9 2 -24 22 -11 22
-11 0 -6 -20 5 -22 2 -21 -35 0 -34 3 -39 15 -29 11 9 17 9 26 -1 9 -10 9 -11
0 -6 -7 4 -19 1 -27 -6 -12 -11 -12 -15 2 -31 15 -16 15 -17 -1 -11 -12 4 -17
1 -17 -14 0 -24 25 -46 41 -36 8 4 9 3 5 -5 -5 -7 -16 -9 -29 -5 -19 6 -20 5
-8 -9 7 -9 18 -14 23 -10 6 3 9 0 6 -7 -2 -8 -10 -16 -18 -18 -7 -3 -10 0 -6
7 4 6 2 11 -4 11 -14 0 -11 -69 3 -87 6 -9 5 -13 -2 -13 -7 0 -9 -5 -6 -10 4
-6 12 -8 18 -4 7 3 4 -1 -5 -8 -15 -13 -15 -15 0 -26 14 -9 14 -11 2 -9 -11 1
-15 -8 -15 -35 -1 -20 2 -35 6 -32 17 10 19 -31 3 -43 -17 -12 -17 -13 2 -13
12 0 15 -3 7 -8 -20 -13 -20 -46 1 -50 15 -3 17 0 12 14 -4 10 -3 15 1 10 4
-4 8 -19 8 -32 1 -16 -2 -21 -9 -14 -18 18 -23 10 -22 -39 1 -27 4 -47 7 -45
4 2 13 -4 20 -13 12 -15 12 -16 -3 -10 -10 3 -20 2 -23 -3 -6 -10 7 -14 35
-11 12 2 13 0 1 -7 -8 -6 -10 -15 -6 -23 5 -8 5 -11 0 -7 -4 4 -14 3 -21 -3
-17 -14 1 -53 19 -43 7 3 1 -4 -13 -16 -14 -12 -20 -19 -15 -17 6 3 15 -5 21
-18 9 -19 9 -22 -2 -18 -8 3 -14 10 -14 16 0 6 -2 8 -5 5 -6 -6 18 -58 28 -58
4 0 7 -7 7 -16 0 -9 -5 -12 -12 -8 -7 4 -10 4 -6 0 3 -4 9 -6 12 -4 3 2 12 -6
21 -17 9 -11 13 -13 9 -5 -7 13 -5 13 9 2 9 -8 20 -11 26 -8 5 4 17 -1 25 -10
18 -18 20 19 18 406 -1 118 -2 349 -2 513 -1 175 -5 295 -10 292 -5 -3 -7 -11
-4 -18 2 -7 -5 -18 -16 -24 -16 -11 -18 -10 -14 2 7 17 -11 21 -19 5 -3 -6 -4
-5 -3 2 2 7 12 12 22 11 14 -1 19 5 20 23 1 13 -2 24 -7 24 -4 0 -6 8 -3 18 5
14 3 14 -10 -2 -12 -14 -16 -16 -16 -5 0 24 16 40 34 33 10 -4 15 -13 11 -24
-3 -10 -1 -21 5 -25 6 -4 9 9 8 34 -1 23 -5 41 -10 41 -4 0 -8 -5 -8 -11 0 -6
-13 -1 -29 10 -32 23 -41 26 -41 13 0 -5 9 -13 21 -18 19 -9 20 -11 5 -23 -14
-12 -16 -12 -11 2 4 10 -1 17 -14 22 -12 3 -21 11 -21 16 0 5 -5 9 -11 9 -8 0
-7 -6 2 -17z m11 -50 c-6 -2 -10 -8 -7 -13 3 -4 -3 -14 -12 -21 -9 -8 -14 -9
-11 -4 2 6 8 18 11 28 4 9 12 17 19 16 10 0 10 -2 0 -6z m12 -44 c-3 -6 0 -16
7 -21 11 -8 10 -8 -4 -4 -24 8 -47 -5 -24 -13 16 -6 15 -7 -1 -18 -16 -9 -18
-8 -17 8 1 11 9 29 18 39 18 21 33 27 21 9z m82 -79 c0 -12 -4 -16 -9 -11 -5
5 -6 14 -3 20 10 15 12 14 12 -9z m-96 0 c-13 -9 -13 -11 0 -20 8 -5 11 -10 5
-10 -5 0 -17 5 -25 10 -13 9 -13 11 0 20 8 5 20 10 25 10 6 0 3 -5 -5 -10z
m53 -11 c-8 -8 -13 -7 -18 2 -5 8 -4 10 3 5 7 -4 12 -2 12 5 0 7 3 9 7 6 4 -4
2 -12 -4 -18z m-3 -29 c8 -5 11 -10 5 -10 -5 0 -17 5 -25 10 -8 5 -10 10 -5
10 6 0 17 -5 25 -10z m45 -19 c1 -12 -3 -17 -12 -14 -19 7 -16 -7 5 -24 15
-12 13 -12 -10 -2 -31 14 -35 24 -13 33 8 3 15 13 15 22 0 23 13 9 15 -15z
m-29 -129 c-13 -13 -18 -14 -28 -3 -11 10 -9 11 6 5 15 -6 18 -4 13 9 -4 11
-2 14 9 10 14 -5 14 -7 0 -21z m31 -12 c-1 -11 -5 -20 -9 -20 -10 0 -10 4 -2
24 8 22 13 20 11 -4z m-27 -20 c0 -4 -7 -7 -15 -6 -23 3 -26 12 -5 13 11 1 20
-2 20 -7z m27 -30 c-1 -22 -12 -26 -22 -9 -4 6 -14 8 -22 5 -8 -3 -11 -1 -8 5
4 5 16 7 27 3 14 -4 18 -2 14 5 -4 6 -3 11 3 11 5 0 9 -9 8 -20z m-34 -70 c4
0 5 5 1 12 -5 7 -3 8 6 3 10 -6 9 -11 -5 -22 -11 -7 -24 -13 -29 -12 -6 0 -5
3 2 6 10 4 10 8 0 21 -10 14 -10 15 2 5 8 -7 18 -13 23 -13z m-68 -28 c-3 -3
-11 0 -18 7 -9 10 -8 11 6 5 10 -3 15 -9 12 -12z m101 -21 c0 -11 -5 -17 -13
-14 -7 3 -13 -1 -13 -8 0 -7 -3 -9 -7 -6 -3 4 2 16 12 27 22 24 21 24 21 1z
m1 -81 c1 -11 -2 -18 -7 -15 -5 3 -13 -3 -19 -12 -6 -10 -11 -14 -11 -10 0 7
30 57 34 57 1 0 2 -9 3 -20z m-104 -15 c-3 -9 -8 -14 -10 -11 -3 3 -2 9 2 15
9 16 15 13 8 -4z m104 -45 c-2 -23 -10 -17 -12 10 -1 10 2 17 6 14 4 -2 7 -13
6 -24z m-92 -290 c-3 -5 -10 -10 -16 -10 -5 0 -9 5 -9 10 0 6 7 10 16 10 8 0
12 -4 9 -10z m5 -30 c0 -5 -5 -10 -11 -10 -5 0 -7 5 -4 10 3 6 8 10 11 10 2 0
4 -4 4 -10z"/>
<path d="M4875 7810 c3 -5 8 -10 11 -10 2 0 4 5 4 10 0 6 -5 10 -11 10 -5 0
-7 -4 -4 -10z"/>
<path d="M4815 7590 c3 -5 8 -10 11 -10 2 0 4 5 4 10 0 6 -5 10 -11 10 -5 0
-7 -4 -4 -10z"/>
<path d="M4885 7560 c-3 -5 -1 -10 4 -10 6 0 11 5 11 10 0 6 -2 10 -4 10 -3 0
-8 -4 -11 -10z"/>
<path d="M4823 7390 c0 -36 2 -50 4 -32 2 17 2 47 0 65 -2 17 -4 3 -4 -33z"/>
<path d="M4230 7103 c-115 -99 -410 -374 -572 -533 l-158 -154 0 -554 c0 -304
-3 -582 -6 -617 l-7 -63 219 -217 c121 -120 258 -252 306 -294 48 -42 131
-116 184 -166 l96 -89 561 2 560 2 32 24 c41 31 271 251 544 520 l215 211 4
283 c3 177 0 287 -6 295 -6 8 -6 50 0 122 5 61 7 207 3 325 l-6 215 -42 39
c-23 22 -103 99 -177 170 -74 72 -191 183 -260 245 -69 63 -163 153 -208 200
l-84 86 -261 -4 c-242 -3 -263 -5 -280 -22 -23 -24 -38 -24 -44 0 -5 19 -17
20 -264 21 -142 0 -265 2 -271 5 -7 2 -42 -21 -78 -52z m665 -104 c16 -26 -20
-89 -51 -89 -21 0 -45 60 -33 82 11 20 73 25 84 7z m271 -78 c112 -25 150 -39
249 -89 105 -52 252 -167 277 -217 6 -11 -14 3 -43 32 -62 59 -180 138 -283
189 -71 35 -260 87 -361 99 -30 4 -53 11 -50 15 5 9 97 -4 211 -29z m-410 22
c-4 -4 -33 -10 -64 -14 -142 -16 -255 -50 -400 -121 -79 -39 -168 -90 -198
-114 -54 -44 -77 -56 -54 -29 63 76 339 215 520 261 81 21 211 32 196 17z
m377 -50 c-7 -2 -21 -2 -30 0 -10 3 -4 5 12 5 17 0 24 -2 18 -5z m-633 -37
c-37 -14 -54 -11 -30 4 8 6 26 9 40 9 22 0 21 -2 -10 -13z m760 -6 c-12 -8
-12 -10 -1 -10 8 0 12 -2 10 -5 -3 -2 -25 2 -49 10 l-45 14 50 0 c36 1 46 -2
35 -9z m-270 -30 c47 -6 112 -18 145 -27 134 -36 335 -149 451 -256 77 -70
216 -268 214 -304 -1 -4 -13 14 -27 42 -27 52 -75 120 -137 194 -37 44 -164
151 -179 151 -5 0 -28 13 -52 30 -210 145 -495 191 -792 130 -51 -11 -125 -33
-165 -49 -40 -16 -83 -32 -95 -36 -39 -11 -175 -105 -236 -163 -32 -32 -82
-87 -109 -124 -52 -70 -75 -91 -41 -39 108 171 259 291 471 376 189 75 360 98
552 75z m-72 -57 c-16 -2 -40 -2 -55 0 -16 2 -3 4 27 4 30 0 43 -2 28 -4z
m-990 -105 c7 -7 12 -20 12 -30 0 -24 -36 -24 -48 0 -18 34 9 57 36 30z m1882
-8 c14 -26 7 -36 -43 -61 -40 -21 -41 -21 -24 -2 9 11 17 27 17 35 0 47 31 64
50 28z m-1810 -33 c0 -2 -10 -12 -22 -23 l-23 -19 19 23 c18 21 26 27 26 19z
m1815 -123 c9 -15 12 -23 6 -20 -11 7 -35 46 -28 46 3 0 12 -12 22 -26z
m-1875 -184 c-6 -11 -13 -20 -16 -20 -2 0 0 9 6 20 6 11 13 20 16 20 2 0 0 -9
-6 -20z m1492 -141 c13 -17 56 -55 96 -86 39 -30 72 -57 72 -61 0 -4 -34 -32
-76 -62 -42 -30 -82 -61 -89 -67 -8 -7 -25 -17 -40 -23 -39 -15 -202 -12 -265
5 -30 8 -72 15 -92 15 -55 0 -47 18 10 23 l47 3 -57 2 -57 2 -1 -343 -1 -343
-62 -66 -62 -66 -68 64 -67 64 0 310 0 310 68 0 c41 0 75 5 87 13 17 13 16 15
-16 26 -45 17 -264 28 -255 13 6 -11 -44 -24 -139 -37 -27 -4 -72 -13 -99 -21
l-49 -14 -76 73 c-42 41 -94 84 -115 97 l-39 23 39 35 c21 19 62 57 91 83 l51
49 539 3 c296 1 552 3 570 5 26 2 37 -4 55 -29z m594 -159 c4 -42 3 -40 -10
15 -8 33 -17 69 -20 80 -4 11 1 4 10 -15 9 -19 18 -55 20 -80z m-2369 -161
c32 -12 43 -26 43 -57 0 -27 -38 -45 -84 -40 -28 3 -31 7 -34 42 -6 67 12 79
75 55z m2491 -1 c13 -13 16 -56 6 -82 -4 -12 -20 -16 -54 -16 -39 0 -49 4 -58
23 -10 21 -11 21 -12 2 -1 -18 -1 -19 -11 -2 -5 9 -21 17 -34 17 -14 0 -25 4
-25 9 0 12 67 34 79 27 5 -4 11 -1 13 5 3 8 34 20 79 28 3 1 10 -4 17 -11z
m-2468 -238 c0 -5 -4 -10 -10 -10 -5 0 -10 5 -10 10 0 6 5 10 10 10 6 0 10 -4
10 -10z m40 -49 c0 -32 -6 -24 -14 19 -4 25 -3 31 4 20 5 -8 10 -26 10 -39z
m249 -169 c98 -189 288 -371 475 -453 122 -54 223 -73 401 -73 295 -2 478 70
687 269 79 75 79 62 0 -19 -171 -176 -401 -267 -672 -267 -253 0 -422 50 -590
171 -83 61 -206 190 -266 280 -46 68 -107 210 -118 270 -3 22 1 15 13 -20 9
-30 41 -101 70 -158z m-222 36 c-3 -8 -6 -5 -6 6 -1 11 2 17 5 13 3 -3 4 -12
1 -19z m2184 -55 c-12 -20 -14 -14 -5 12 4 9 9 14 11 11 3 -2 0 -13 -6 -23z
m-2116 -83 c9 -16 13 -30 11 -30 -3 0 -12 14 -21 30 -9 17 -13 30 -11 30 3 0
12 -13 21 -30z m1825 -40 c-12 -16 -24 -30 -26 -30 -3 0 4 14 16 30 12 17 24
30 26 30 3 0 -4 -13 -16 -30z m-1579 -101 c62 -77 143 -148 257 -228 52 -36
228 -100 321 -116 46 -8 138 -15 205 -15 326 1 515 79 755 313 78 76 81 77 34
22 -184 -218 -395 -326 -688 -353 -147 -14 -283 1 -430 49 -136 44 -212 85
-328 179 -72 59 -201 201 -229 255 -11 20 -11 20 11 0 12 -10 54 -58 92 -106z
m1783 61 c-15 -22 -29 -40 -31 -40 -5 0 3 15 29 53 30 43 31 32 2 -13z m-1916
-95 c116 -152 192 -219 342 -303 70 -39 230 -106 282 -118 18 -4 28 -9 21 -11
-16 -6 -181 51 -252 87 -193 97 -345 236 -456 415 -27 44 -6 20 63 -70z m1878
6 c-19 -36 -107 -133 -114 -126 -3 3 -24 -12 -46 -32 -24 -23 -14 -7 25 37 36
41 80 94 99 117 36 46 59 49 36 4z m-1878 -180 c11 -30 1 -51 -25 -51 -17 0
-37 44 -30 64 11 27 44 19 55 -13z m1909 3 c3 -10 -4 -26 -20 -42 l-26 -25 -6
26 c-4 15 -5 34 -1 42 7 20 45 19 53 -1z m-252 -34 c-3 -5 -20 -19 -38 -30
-32 -22 -32 -22 3 9 37 32 45 37 35 21z m-100 -70 c-3 -5 -12 -10 -18 -10 -7
0 -6 4 3 10 19 12 23 12 15 0z m-39 -35 c-11 -8 -25 -15 -30 -15 -6 1 0 7 14
15 32 19 40 18 16 0z m-121 -56 c-79 -38 -222 -80 -319 -93 -80 -10 -48 1 75
28 64 13 158 42 210 64 120 51 137 52 34 1z m-580 -90 c18 -7 17 -8 -5 -8 -14
0 -54 6 -90 14 l-65 13 70 -5 c39 -3 79 -9 90 -14z m145 -30 c16 -29 12 -67
-9 -79 -33 -17 -61 -12 -72 14 -30 65 48 128 81 65z"/>
<path d="M5753 5083 c-61 -76 -69 -92 -18 -38 44 47 71 85 61 85 -2 0 -22 -21
-43 -47z"/>
<path d="M7020 5822 c0 -5 7 -9 15 -9 8 0 12 4 9 9 -3 4 -9 8 -15 8 -5 0 -9
-4 -9 -8z"/>
</g>
</svg>
